<?xml version="1.0" encoding="UTF-8"?>
<svg id="Layer_1" xmlns="http://www.w3.org/2000/svg" version="1.1" xmlns:xlink="http://www.w3.org/1999/xlink" viewBox="0 0 500 500">
  <!-- Generator: Adobe Illustrator 29.2.1, SVG Export Plug-In . SVG Version: 2.1.0 Build 116)  -->
  <defs>
    <style>
      .st0 {
        fill: url(#New_Pattern_3);
      }

      .st1 {
        fill: none;
      }

      .st2 {
        fill: #0248c4;
      }
    </style>
    <pattern id="New_Pattern_3" data-name="New Pattern 3" x="0" y="0" width="153.1" height="122.3" patternTransform="translate(15293.6 15092.9) scale(2.9)" patternUnits="userSpaceOnUse" viewBox="0 0 153.1 122.3">
      <g>
        <rect class="st1" x="0" y="0" width="153.1" height="122.3"/>
        <path class="st2" d="M128.4,125.6c-.4-.1-.8-.2-1.2-.2s-.5,0-.7.1-.3.2-.3.4,0,.3.3.4.4.1.7.1c.4,0,.7,0,1-.1s.7-.2,1.3-.4c-.4-.2-.7-.3-1.1-.4ZM128.7,123.6c-.4-.5-.7-.7-.9-.7s-.3,0-.4.2,0,.2,0,.4c0,.3.2.6.7.9.5.3,1.1.7,1.8,1-.4-.7-.7-1.3-1.1-1.8ZM128.1,127.6c-.5.3-.8.7-.8,1.1s.1.4.4.4.7-.2,1-.7c.3-.5.7-1.1,1.1-1.8-.6.3-1.2.6-1.7,1ZM129.9,128.3c0,.3-.1.7-.1,1.1s0,.4.2.6c.1.2.2.3.4.3s.3,0,.4-.3c0-.2.1-.4.1-.6,0-.4,0-.8-.1-1.2,0-.4-.2-.8-.4-1.3-.2.6-.4,1-.4,1.4ZM130.7,123.8c0-.4.1-.8.1-1.2s0-.4,0-.6-.2-.2-.3-.2-.3,0-.4.2c0,.2-.1.4-.1.6,0,.4,0,.8.2,1.3s.2.8.4,1.2c.1-.5.2-.9.3-1.3ZM129.9,126c0,.1,0,.2.2.4.1.1.2.2.4.2s.2,0,.4-.2c.1-.1.2-.2.2-.4s0-.2-.2-.4c-.1-.1-.2-.2-.4-.2s-.2,0-.4.1c-.1.1-.2.3-.2.5ZM132.7,124.4c.5-.4.8-.7.8-1s-.1-.5-.4-.5c-.4,0-.7.2-1,.7-.3.5-.7,1-1.1,1.8.6-.3,1.2-.6,1.7-1ZM132.1,128.3c.3.5.7.7,1,.7s.4-.1.4-.4-.2-.6-.7-1-1.1-.7-1.8-1.1c.4.7.7,1.3,1.1,1.8ZM132.6,126.4c.3,0,.7.1,1,.1s.5,0,.7-.1c.2,0,.3-.2.3-.4s0-.3-.2-.4c-.2-.1-.4-.2-.8-.2s-.7,0-.9.1c-.3,0-.7.2-1.3.4.5.2.9.3,1.3.4Z"/>
        <path class="st2" d="M35,116.5c-.3-.2-.6-.2-.9-.1-.6.3-1.1.7-1.4,1.2s-.6,1.1-.8,1.6c-.4.8-.8,1.7-1.1,2.5s-.8,1.6-1.4,2.3c-.4.1-.7,0-.9-.2-.2-.2-.4-.4-.5-.7-.3-.5-.5-1.1-.6-1.8-.2-.8-.3-1.4-.6-1.9-.2-.5-.5-.7-.9-.7-.4,0-.9.6-1.5,1.8-.9,1.5-1.2,3.4-1,5.9.1-.4.2-.9.4-1.3.1-.4.3-.8.5-1.2.6-1.3,1.2-1.8,1.6-1.4.4.4.8,1,1.1,2,.2.6.4,1.2.6,1.7s.5,1,1,1.2c.5.3,1,.2,1.3-.2.5-.7.8-1.5,1.1-2.3.3-.8.6-1.7.9-2.5.4-1.1.8-1.8,1.1-2.1.3-.3.6-.4.8-.3s.5.2.8.5c.3.3.5-.3.8-1.7.3-1.4.2-2.2,0-2.4Z"/>
        <g>
          <path class="st2" d="M128.4,64.5c-.4-.1-.8-.2-1.2-.2s-.5,0-.7.1-.3.2-.3.4,0,.3.3.4.4.1.7.1c.4,0,.7,0,1-.1s.7-.2,1.3-.4c-.4-.2-.7-.3-1.1-.4ZM128.7,62.5c-.4-.5-.7-.7-.9-.7s-.3,0-.4.2,0,.2,0,.4c0,.3.2.6.7.9.5.3,1.1.7,1.8,1-.4-.7-.7-1.3-1.1-1.8ZM128.1,66.4c-.5.3-.8.7-.8,1.1s.1.4.4.4.7-.2,1-.7c.3-.5.7-1.1,1.1-1.8-.6.3-1.2.6-1.7,1ZM129.9,67.1c0,.3-.1.7-.1,1.1s0,.4.2.6c.1.2.2.3.4.3s.3,0,.4-.3c0-.2.1-.4.1-.6,0-.4,0-.8-.1-1.2,0-.4-.2-.8-.4-1.3-.2.6-.4,1-.4,1.4ZM130.7,62.6c0-.4.1-.8.1-1.2s0-.4,0-.6-.2-.2-.3-.2-.3,0-.4.2c0,.2-.1.4-.1.6,0,.4,0,.8.2,1.3s.2.8.4,1.2c.1-.5.2-.9.3-1.3ZM129.9,64.9c0,.1,0,.2.2.4.1.1.2.2.4.2s.2,0,.4-.2c.1-.1.2-.2.2-.4s0-.2-.2-.4c-.1-.1-.2-.2-.4-.2s-.2,0-.4.1c-.1.1-.2.3-.2.5ZM132.7,63.2c.5-.4.8-.7.8-1s-.1-.5-.4-.5c-.4,0-.7.2-1,.7-.3.5-.7,1-1.1,1.8.6-.3,1.2-.6,1.7-1ZM132.1,67.2c.3.5.7.7,1,.7s.4-.1.4-.4-.2-.6-.7-1-1.1-.7-1.8-1.1c.4.7.7,1.3,1.1,1.8ZM132.6,65.3c.3,0,.7.1,1,.1s.5,0,.7-.1c.2,0,.3-.2.3-.4s0-.3-.2-.4c-.2-.1-.4-.2-.8-.2s-.7,0-.9.1c-.3,0-.7.2-1.3.4.5.2.9.3,1.3.4Z"/>
          <path class="st2" d="M118.4,104.2c-.1.3-.2.5-.2.8s0,.4.2.6.3.2.5.2.4,0,.5-.2c.1-.1.2-.3.4-.5.1,0,.3.1.3.1,0,0,.1,0,.2,0,.3,0,.5-.1.6-.4s.2-.6.2-.9,0-.2,0-.4c0-.1,0-.3,0-.4h-.2c0,.4,0,.8-.1,1.1s-.3.5-.5.5-.2-.1-.2-.3c0-.3,0-.6,0-.9h-.1c0,.2,0,.5-.1,1-.1.5-.3.7-.5.7s-.3,0-.3-.2c0-.1,0-.3,0-.5v-.6h-.1Z"/>
          <path class="st2" d="M114.7,89.4c.2,0,.3,0,.4,0,.8,0,3.9-2.6,4.5-3.2.3-.4.7-.8,1-1.2l1.1.8.2-1.4c0,0-.2,0-.3-.1-.1,0-.3-.1-.3-.2.2-.3.4-.6.5-.9s.1-.7.1-1c0-.9-.3-1.4-1-1.4s-.9.3-1.3.9c-.4.6-.6,1.1-.5,1.7,0,.4.2.7.3.9s.4.3.6.5c-.4.3-.8.7-1.3,1.2-.5.4-3.6,3-4.6,3.4.2,0,.3,0,.5.1ZM119.9,83.7c-.2-.2-.4-.5-.4-.8s0-.4.1-.6c0-.2.2-.4.4-.6.2-.1.3-.2.5-.2.3,0,.5.1.6.3s.2.4.2.7,0,.5,0,.6c0,.1-.1.3-.2.5-.1.2-.2.3-.4.4-.2,0-.5,0-.7-.2Z"/>
          <path class="st2" d="M132,118.3c0,.2-.2.5-.3.8l4.1-2.4c.2-.1.3-.2.5-.4.1-.2.2-.3.2-.5v-.3s-3.9,2.3-3.9,2.3c-.3.1-.5.3-.6.5ZM135.6,114.6c.4-.2.6-.4.7-.5,0-.1.1-.4.2-.8l-3.9,2.3c-.3.2-.5.4-.6.5s-.2.4-.2.8l3.9-2.3Z"/>
          <path class="st2" d="M133.9,76.1c-.1.2-.2.4-.3.6l3.4-1.7c.2,0,.3-.2.4-.4,0-.2.2-.4.3-.6l-3.1,1.5c-.3.1-.5.3-.6.5ZM133.9,77.6c-.1.2-.2.4-.3.6l3.3-1.6c.2,0,.3-.2.4-.3,0-.2.2-.3.3-.6l-3.2,1.5c-.2,0-.3.2-.4.3ZM133.7,73.3c0,.3,0,.6.2.9s.4.4.6.4.5,0,.7-.3c.2-.2.3-.5.5-.8,0,0,.2,0,.3.1,0,0,.2,0,.3,0,.4,0,.6-.1.8-.4.2-.3.3-.7.3-1.1s-.1-.9-.3-1.4h-.2v.3c0,.5,0,.9-.1,1.4,0,.5-.2.7-.5.7s-.3-.2-.5-.6c-.1-.4-.2-.7-.3-1h-.2c0,.6,0,1.1-.2,1.6-.1.5-.3.8-.6.8s-.3-.1-.4-.4c0-.3-.1-.7-.2-1.2l-.2.2c0,.3-.1.5-.1.9Z"/>
          <path class="st2" d="M141.1,114.8c0,.5.1,1,.4,1.4.3.4.6.6,1.1.6s.8-.2,1.1-.5c.3-.3.6-.8.8-1.3.4.2.7.3,1,.3.6,0,1-.2,1.3-.7.3-.5.4-1.1.4-1.9s-.2-1.6-.5-2.4h-.3v.6c0,.7,0,1.5-.2,2.3-.1.8-.4,1.2-.8,1.2s-.5-.3-.7-.9c-.2-.6-.4-1.2-.6-1.8l-.3.2c0,.8,0,1.6-.2,2.6-.1,1-.5,1.5-.9,1.5s-.5-.2-.7-.7-.3-1.2-.4-2.1l-.3.3c-.1.4-.2.9-.2,1.5ZM141.8,119.6c-.1.2-.2.6-.4,1.1l4.9-2.6c.3-.2.6-.4.8-.7.2-.3.3-.7.4-1.1l-5.1,2.9c-.3.1-.5.3-.6.5Z"/>
          <path class="st2" d="M125.9,84.1c.6-.5,1-1.1,1.4-1.5s.5-1.1.5-1.8-.1-.8-.3-1.1c-.2-.3-.5-.4-.9-.4s-.5,0-.7.3c-.2.2-.3.4-.3.6,0,.4.1.6.3.7.2.1.5.3.9.4,0,.5-.1,1-.3,1.3s-.6.7-1.1,1.2l.3.4Z"/>
          <path class="st2" d="M161.5,107.1c-7.7,3.2-10.1,10.6-9.6,12.1s.7,1.4,1.5,1.7,1.1.2,1.6,0c.5-.2.9-.6,1.1-1.2.3-.8.3-1.4,0-1.8-.3-.5-.9-1-1.7-1.5.9-2.4,7.2-9.2,7.2-9.2Z"/>
          <path class="st2" d="M130.4,71.3s0,0,0,0c-.2.2-.4.4-.6.6s-.5.3-.8.4c-.9.3-2.2.6-3.8.9s-3.1.6-4.6.8c-.7.1-1.3.2-1.9.3-.6,0-1.4.2-2.3.4l-.6,3,5.2-.9c1.2-.3,2.5-.6,3.8-.8,1.3-.3,2.5-.6,3.7-1.1,0,.2-.2.4-.3.6-.1.2-.2.4-.3.6-.1.3-.1.5,0,.6.2.2.4.1.5-.1.4-.8.8-1.7,1.2-2.5.4-.9.7-1.8,1.1-2.7,0,0,0,0,0,0Z"/>
          <path class="st2" d="M140.9,67.6v-.5c-1-.3-1.5-1-1.5-1.9.1-1.2.5-1.9,1-2.3v-.5c-.5,0-1.1.5-1.6,1.4-.6.9-.8,1.8-.8,2.7s.2,1.3.5,1.8c.4.5.7.8,1,.8l1.4-1.5ZM145,67.6v-.5c-1-.3-1.5-1-1.5-1.9.1-1.2.5-1.9,1-2.3v-.5c-.5,0-1.1.5-1.6,1.4s-.8,1.8-.8,2.7.2,1.3.5,1.8.7.8,1,.8l1.4-1.5Z"/>
          <path class="st2" d="M150.1,73.1c-.6-.5-1.2-.7-1.8-.7s-.8.1-1.2.3c-1,.6-1.9,1.3-2.7,2.3-.9,1-1.7,2-2.4,3s-1.3,1.8-1.6,2.4h0c0,0,0,1.6,0,1.6.3-.3.7-.9,1.3-1.8s1.2-1.7,2-2.3c.7-.7,1.5-1.1,2.2-1.1h.1c.7,0,1.4.6,2,1.8.1.2.2.3.4.3s.2,0,.3-.2c.6-.6,1.1-1.2,1.7-1.9.5-.7,1-1.4,1.4-2.1-.4-.7-.9-1.2-1.5-1.7Z"/>
          <path class="st2" d="M156.3,82.9c-1.7.3-3.5.7-5.6,1l-1.7,3.4c.9-.2,1.8-.3,2.8-.5.9-.2,1.8-.3,2.8-.5l1.7-3.4Z"/>
          <path class="st2" d="M136.8,103.1c-1.4,1.2-2.9,2.5-4.6,4l.3,4.1c.8-.7,1.5-1.3,2.3-2,.8-.7,1.5-1.3,2.3-2l-.3-4.1Z"/>
          <path class="st2" d="M133.1,86.2c.3-.2.7-.5,1-.7.4-.3.6-.6.8-1,.2-.2.3-.5.4-.8,0-.3.2-.6.3-1,0-.5-.1-.7-.7-.7-.6,0-1,0-1.2,0-.2,0-.4.1-.6.4-.2.3-.4.6-.5.9-.1.2-.2.5-.3.7,0,.2-.2.4-.2.6-.1,0-.2,0-.4.1s-.2,0-.4.1c-.2,0-.4.1-.7.2-.4.1-.8.3-1.2.4-.3.1-.6.3-.9.5-.5.4-.9,1-1.2,1.8-.2.5-.4,1.3-.6,2.2,0,0,0,0,0,0,0,0,0,0,.1,0,.3-.6.7-1,1.2-1.4.4-.3,1-.7,1.8-1,.3-.1.7-.3,1-.4s.7-.3,1.1-.4c.3-.2.7-.4,1-.6Z"/>
          <path class="st2" d="M121.1,90.1c-.3.2-.6.4-.8.7-.4.6-.7,1.2-1.1,1.7-.4.6-.9,1-1.4,1.3-.4.2-.7.5-1,.8s-.6.7-.7,1.1c0,.2-.2.6-.2,1,0,.5,0,.9,0,1.3,0,.4.3.7.7.9.4.2.9.3,1.4.3.5,0,1,0,1.6,0,.5,0,.9-.2,1.2-.2,2.4-.6,4.3-1.5,5.9-2.9.3-.2.5-.5.8-.7.2-.3.4-.6.5-1-.8.5-1.7.9-2.5,1.3-.9.4-1.8.7-2.8.9-.8.2-1.6.3-2.7.4-1,0-2,0-2.9-.4,0,0,0-.1.2-.2,1-.5,1.9-1.5,2.5-2.7.1-.2.3-.4.4-.6.2-.2.4-.3.7-.4.3,0,.5.2.6.4s.2.5.2.7c0,.1,0,.1.2,0,.1,0,.2-.1.2-.2.2-.4.2-.9.2-1.3,0-.5,0-.9-.2-1.3-.2-.6-.5-.8-.9-.6Z"/>
          <path class="st2" d="M135.7,94.4s0,0,0,0c-.2.2-.5.3-.9.5s-.7.3-.9.3v.3c-.1,0,1.7.5,1.7.5.2-.2.4-.5.6-.9.2-.3.3-.6.4-.9.2-.5.3-1.1.3-1.7,0-1.1-.3-2-1-2.7l-1.2,2c.4.5.6,1,.8,1.4h0c0,.2.1.4.2.7,0,.2,0,.4,0,.4,0,0,0,0,0,0Z"/>
          <path class="st2" d="M151.8,91.6c-.2-.2-.5-.3-.8-.2-.6.1-1,.4-1.4.8s-.7.8-.9,1.2c-.5.6-.9,1.3-1.4,1.9s-1,1.2-1.6,1.7c-.3,0-.6,0-.8-.3-.2-.2-.3-.4-.4-.7-.1-.4-.2-1-.2-1.6,0-.7,0-1.2-.2-1.7-.1-.4-.3-.7-.6-.7-.3,0-.8.4-1.6,1.2-1,1.1-1.6,2.7-1.8,4.7.2-.3.3-.7.5-1,.2-.3.4-.7.6-1,.8-1,1.3-1.3,1.6-.9.3.4.5,1,.6,1.9,0,.5.1,1,.2,1.5s.3.9.6,1.1c.4.3.8.4,1.1,0,.5-.5.9-1.1,1.3-1.7.4-.7.7-1.3,1.1-1.9.5-.9,1-1.4,1.2-1.6.3-.2.5-.3.7-.2s.4.3.6.6c.2.3.5-.1.9-1.3.4-1.1.6-1.8.3-2Z"/>
          <path class="st2" d="M131.7,97.6c0-.2-.1-.2-.2,0,0,0,0,0-.1.1-.2.3-.4.4-.5.4-.1,0-.3-.1-.3-.2h0c0,0,0-.1,0-.2,0-.2,0-.3,0-.5,0-.3.1-.7.3-1.1.1-.4.3-.8.4-1,0-.1,0-.2.1-.2,0,0,0,0,0,0,0,0,0,0-.1,0,0,.1-.1.2-.2.2-.2.3-.5.7-.7,1.2-.2.5-.3,1-.4,1.4,0,.3,0,.6,0,1.1,0,.4.3.6.7.6s.7-.3.9-1c.1-.4.1-.6.1-.7Z"/>
          <path class="st2" d="M128.6,118.8c0-.2-.1-.2-.2,0,0,0,0,0-.1.1-.2.3-.4.4-.5.4-.1,0-.3-.1-.3-.2h0c0,0,0-.1,0-.2,0-.2,0-.3,0-.5,0-.3.1-.7.3-1.1.1-.4.3-.8.4-1,0-.1,0-.2.1-.2,0,0,0,0,0,0,0,0,0,0-.1,0,0,.1-.1.2-.2.2-.2.3-.5.7-.7,1.2-.2.5-.3,1-.4,1.4,0,.3,0,.6,0,1.1,0,.4.3.6.7.6s.7-.3.9-1c.1-.4.1-.6.1-.7Z"/>
          <path class="st2" d="M114.3,104.6s0,0,0,0c-.3.4-.6.8-.9,1.2s-.5.9-.8,1.3c-.5-.8-1.1-1.7-1.8-2.6,0,.2-.2.3-.3.5,0,.2-.2.3-.2.5.4.5.8,1,1.1,1.5s.6,1,.8,1.6c0,0,0,0,0,0s0,0,0,0c0,0,0,0,.1,0,0,0,.2-.2.2-.3,0-.1,0-.2.1-.3.2-.4.4-.9.6-1.3s.5-.8.8-1.1c0-.3,0-.6.1-.9h0Z"/>
          <path class="st2" d="M118.3,113.3c-.7.3-1.1.6-1.1.7h.2c.3,0,.6,0,.9-.1.3,0,.6-.2.8-.3.6-.3,1.1-.7,1.4-1.3.2-.3.2-.6.2-.8s0-.3-.2-.5c-.2-.2-.7-.3-1.4-.3h-.3c-.6,0-1,0-1.1.3-.3.4-.5.7-.7,1.1-.2.4-.2.6-.2.7h0s0,0,.2-.2.2-.2.3-.2c.2-.1.4-.2.8-.2s.3,0,.5,0c.7,0,1,.1,1.1.2h0c-.2.3-.6.6-1.4.9Z"/>
          <path class="st2" d="M146.4,85.3s0,0,0,0c-.4.4-1,.6-1.8.8-.2,0-.5,0-.7,0-.5,0-1-.1-1.5-.4,0,0-.2,0-.2,0s0,0,0,0c-.6.3-1.1.8-1.4,1.3-.2.3-.3.6-.3.6s0,0,0,0c0,0,0,0,.2-.2.3-.3.5-.5.7-.6,0,0,.2-.1.3-.2,0,0,.1,0,.2,0s0,0,.2,0c.5.2.9.4,1.4.4s.4,0,.7,0c.7-.1,1.3-.4,1.8-.6l.8-1s0,0,0,0Z"/>
          <path class="st2" d="M150.8,63.7c-.6.5-1,1-1.3,1.7-.1.2-.2.5-.3.8,0,.3,0,.5,0,.8,0,.2.2.3.3.4s.3.2.4.2c.2,0,.3,0,.5,0,.2,0,.4-.1.5-.2l.4-.9c-.1,0-.2.1-.4.2-.2,0-.3.1-.5.1-.2,0-.3,0-.5,0-.1,0-.2-.2-.2-.4,0-.1,0-.3,0-.5,0-.2.2-.4.4-.6s.3-.4.6-.6c.2-.2.4-.4.7-.5.2-.2.5-.3.7-.4.2-.1.5-.2.7-.2.5-.1.8,0,1,0s.2.5.1.9c0,.1,0,.2,0,.2,0,0,0,0,0,0,0,0,0,0,.1,0,0,0,0,0,.1-.2,0,0,.1-.2.2-.3,0-.1,0-.3.1-.4,0-.1,0-.3,0-.4,0-.1,0-.3-.1-.4,0-.1-.2-.2-.3-.3s-.2-.1-.4-.1c-.1,0-.3,0-.5,0-.2,0-.3,0-.5.1-.7.2-1.4.6-1.9,1ZM152.2,67.3c-.2.1-.4.3-.6.4-.2.2-.5.3-.7.5s-.5.3-.6.4-.3.2-.5.3c-.1,0-.2.1-.2.1h.1c.4-.1.7-.2,1-.3s.6-.2.9-.4c.3-.1.5-.3.7-.5.2-.2.4-.4.7-.7,0,0,.1,0,.2.1,0,0,0,0,.1.1.1-.2.2-.3.2-.4,0-.1,0-.2,0-.3h0c0,0,0-.2,0-.2,0,0,0,0-.2-.1.1-.4.2-.7.2-1s0,0,0-.1c0-.3-.1-.4-.2-.5,0,0-.2,0-.2,0s-.2,0-.3,0c-.2,0-.4.2-.6.5-.2.2-.3.5-.4.6,0,0,0,.1,0,.2,0,.1,0,.2,0,.3,0,.1.2.3.3.4.1.1.3.2.5.3-.1.1-.2.2-.4.4ZM152.6,66c-.1,0-.2-.1-.3-.2,0,0,0,0,0-.1s0,0,0,0c0,0,0-.1.1-.2,0,0,.1,0,.2,0h0c0,0,.1,0,.2,0,0,0,.1.1.1.2,0,0,0,0,0,.1,0,.1,0,.2,0,.4-.1,0-.2-.1-.3-.2Z"/>
          <path class="st2" d="M128.1,109.6c.1-.2.2-.3.3-.5.1-.2.2-.3.2-.4,0,0,0,0,0,0,0,0,0,0,0,0s0,0-.1,0c-.4.1-.9.4-1.4.9s-.9.9-1.2,1.4c-.2.3-.3.5-.3.7,0,0,0,0,0,.1,0,.2.1.4.3.6.2.2.4.3.7.3.2,0,.3.1.3.2h0c0,0,0,.1-.2.2,0,0-.2,0-.5.2-.3.1-.7.3-1,.4-.3.2-.6.3-.8.4-.1,0-.2.1-.2.2s0,0,.1,0c.1,0,.2,0,.4,0s.4,0,.6,0c.4,0,.7-.1.9-.2.4-.2.6-.4.9-.8.2-.3.5-.6.7-1,.3-.4.4-.6.4-.8s0,0,0,0c0-.2-.1-.3-.3-.4-.2,0-.4-.2-.6-.3-.2,0-.4-.2-.5-.4.2-.2.4-.3.6-.4.2,0,.4-.1.6-.2,0,0,.1-.2.2-.3Z"/>
          <path class="st2" d="M143.5,107.2c0,0,0-.1,0-.1,0,0-.1,0-.2,0-.8.7-1.3.7-1.5,0-.2-.7-.1-1.7.2-2.9s.5-1.8.5-2l-.6.6h0c-1.1,3.4-1.5,5.4-1.2,6.1.4.7.8,1,1.3.9,1,0,1.5-.9,1.5-2.6Z"/>
          <path class="st2" d="M149.5,104.9c.6.2,1.2.5,1.6.9.4.4.4.9,0,1.3-.3.4-1,.8-2,1.2v.3c-.1,0,0,.4,0,.4,2.2-.4,3.7-1.1,4.4-2,.3-.5.5-1,.4-1.5s-.3-.9-.6-1.3c-.2-.3-.5-.5-1-.8s-.8-.4-1.1-.5l.6-1.3h-1l-1.5,3.3Z"/>
          <path class="st2" d="M120.7,123.4c.2-.3.5-.9.9-1.8.4-.9.8-1.9,1.2-3.1l-1.9.6-.6,1.8c-.3-.4-.7-.9-1-1.3-.3-.4-.6-.6-.9-.6h0c-.5,0-.9.3-1.2.8-.3.5-.5,1-.6,1.6,0,.3,0,.6,0,.9s0,.6,0,.9c0,.6.3,1.1.5,1.5.4.6.7,1.3,1.1,2.2.3.7.4,1.4.4,2.1s0,.5,0,.7c0,0,.1-.1.2-.2.1-.6.3-1.2.5-1.8.1-.4.2-.9.2-1.4s0-.4,0-.6c-.2-.7-.5-1.4-.9-2.2-.4-.7-.7-1.4-1-2.1.2-.2.3-.3.5-.3s.2,0,.3,0c.3.2.6.4.9.7.3.3.6.7.8,1,.3.3.5.5.7.6h0s0,0,.1,0h0Z"/>
          <polygon class="st2" points="126.2 105.1 124.1 103 126.2 100.9 128.3 103 126.2 105.1"/>
          <polygon class="st2" points="129.3 105.1 127.2 103 129.3 100.9 131.3 103 129.3 105.1"/>
        </g>
        <g>
          <path class="st2" d="M111.3,120.8c-.1.3-.2.5-.2.8s0,.4.2.6.3.2.5.2.4,0,.5-.2c.1-.1.2-.3.4-.5.1,0,.3.1.3.1,0,0,.1,0,.2,0,.3,0,.5-.1.6-.4s.2-.6.2-.9,0-.2,0-.4c0-.1,0-.3,0-.4h-.2c0,.4,0,.8-.1,1.1s-.3.5-.5.5-.2-.1-.2-.3c0-.3,0-.6,0-.9h-.1c0,.2,0,.5-.1,1-.1.5-.3.7-.5.7s-.3,0-.3-.2c0-.1,0-.3,0-.5v-.6h-.1Z"/>
          <path class="st2" d="M51.9,95.1c-.4-.1-.8-.2-1.2-.2s-.5,0-.7.1-.3.2-.3.4,0,.3.3.4.4.1.7.1c.4,0,.7,0,1-.1s.7-.2,1.3-.4c-.4-.2-.7-.3-1.1-.4ZM52.2,93c-.4-.5-.7-.7-.9-.7s-.3,0-.4.2,0,.2,0,.4c0,.3.2.6.7.9.5.3,1.1.7,1.8,1-.4-.7-.7-1.3-1.1-1.8ZM51.6,97c-.5.3-.8.7-.8,1.1s.1.4.4.4.7-.2,1-.7c.3-.5.7-1.1,1.1-1.8-.6.3-1.2.6-1.7,1ZM53.4,97.7c0,.3-.1.7-.1,1.1s0,.4.2.6c.1.2.2.3.4.3s.3,0,.4-.3c0-.2.1-.4.1-.6,0-.4,0-.8-.1-1.2,0-.4-.2-.8-.4-1.3-.2.6-.4,1-.4,1.4ZM54.2,93.2c0-.4.1-.8.1-1.2s0-.4,0-.6-.2-.2-.3-.2-.3,0-.4.2c0,.2-.1.4-.1.6,0,.4,0,.8.2,1.3s.2.8.4,1.2c.1-.5.2-.9.3-1.3ZM53.3,95.5c0,.1,0,.2.2.4.1.1.2.2.4.2s.2,0,.4-.2c.1-.1.2-.2.2-.4s0-.2-.2-.4c-.1-.1-.2-.2-.4-.2s-.2,0-.4.1c-.1.1-.2.3-.2.5ZM56.2,93.8c.5-.4.8-.7.8-1s-.1-.5-.4-.5c-.4,0-.7.2-1,.7-.3.5-.7,1-1.1,1.8.6-.3,1.2-.6,1.7-1ZM55.5,97.8c.3.5.7.7,1,.7s.4-.1.4-.4-.2-.6-.7-1-1.1-.7-1.8-1.1c.4.7.7,1.3,1.1,1.8ZM56.1,95.8c.3,0,.7.1,1,.1s.5,0,.7-.1c.2,0,.3-.2.3-.4s0-.3-.2-.4c-.2-.1-.4-.2-.8-.2s-.7,0-.9.1c-.3,0-.7.2-1.3.4.5.2.9.3,1.3.4Z"/>
          <path class="st2" d="M80.6,101.6c1.3-.7,2.4-1.4,3.2-2.1.8-.7,1.4-1.7,1.8-3s.2-1.4,0-2.1c-.3-.6-.7-1-1.4-1.2s-.9,0-1.3.1c-.4.2-.6.6-.8,1-.2.6-.1,1.1.2,1.5.3.3.8.7,1.5,1.1-.3,1-.7,1.7-1.2,2.1-.5.5-1.3,1-2.5,1.6l.4.8Z"/>
          <path class="st2" d="M95.4,124.8c.2.5.6.8,1.2,1s1.3,0,2-.4c.7-.5,1.1-1.1,1.4-1.9s.2-1.5,0-2.2c-.3-.7-.6-1.1-1.2-1.2s-1.3,0-1.9.5c-.6.6-1.1,1.4-1.4,2.4s-.2,1.3,0,1.8ZM99.1,122c.3.5.3,1.2,0,1.9s-.3.5-.8.6c-.4.2-.9.2-1.4,0s-.7-.4-.9-.9c-.2-.5-.2-.9,0-1.3s.4-.7.7-1c.4-.3.7-.4,1-.3.6.1,1,.4,1.3.9Z"/>
          <path class="st2" d="M90.4,95.4c-.2.5-.3,1-.3,1.5s.1.8.3,1.1.5.5.9.5.7-.1.9-.3c.2-.2.4-.5.7-1,.3.1.5.2.6.2.1,0,.3,0,.4,0,.5,0,.9-.2,1.2-.7s.3-1.1.3-1.7,0-.5,0-.7c0-.2,0-.5-.2-.7h-.3c0,.7,0,1.5-.3,2.1s-.5,1-1,1-.3-.2-.4-.6c0-.6-.1-1.1-.2-1.7h-.3c0,.3-.1.9-.3,1.9-.2.9-.5,1.3-.9,1.3s-.5-.1-.6-.4c0-.2-.1-.6-.1-.9v-1.1h-.2Z"/>
          <path class="st2" d="M38.1,120c.2,0,.3,0,.4,0,.8,0,3.9-2.6,4.5-3.2.3-.4.7-.8,1-1.2l1.1.8.2-1.4c0,0-.2,0-.3-.1-.1,0-.3-.1-.3-.2.2-.3.4-.6.5-.9s.1-.7.1-1c0-.9-.3-1.4-1-1.4s-.9.3-1.3.9c-.4.6-.6,1.1-.5,1.7,0,.4.2.7.3.9s.4.3.6.5c-.4.3-.8.7-1.3,1.2-.5.4-3.6,3-4.6,3.4.2,0,.3,0,.5.1ZM43.3,114.3c-.2-.2-.4-.5-.4-.8s0-.4.1-.6c0-.2.2-.4.4-.6.2-.1.3-.2.5-.2.3,0,.5.1.6.3s.2.4.2.7,0,.5,0,.6c0,.1-.1.3-.2.5-.1.2-.2.3-.4.4-.2,0-.5,0-.7-.2Z"/>
          <path class="st2" d="M109,102.1c.4-.2.5-.5.5-.8l-2.3,1.3c-.2,0-.3.2-.4.3s-.2.3-.2.5l2.4-1.3Z"/>
          <path class="st2" d="M109.9,115.9c.1,0,.2,0,.3,0,.4,0,.8-.2,1.2-.5.2-.2.4-.5.6-.7l.6.5v-.8c0,0,0,0,0,0,0,0-.2,0-.2-.1.1-.2.2-.3.3-.5,0-.2,0-.4,0-.6,0-.5-.2-.8-.6-.8s-.5.2-.8.5c-.2.3-.3.7-.3,1,0,.2.1.4.2.5.1,0,.2.2.3.3-.2.2-.5.4-.7.7-.3.2-.7.4-1.2.6,0,0,.2,0,.3,0ZM111.5,113.9c-.1-.1-.2-.3-.2-.5s0-.2,0-.3c0-.1.1-.2.3-.4,0,0,.2,0,.3,0,.2,0,.3,0,.4.2s.1.2.1.4,0,.3,0,.4c0,0,0,.2-.1.3,0,.1-.1.2-.2.2-.1,0-.3,0-.4-.1Z"/>
          <path class="st2" d="M57.3,106.7c-.1.2-.2.4-.3.6l3.4-1.7c.2,0,.3-.2.4-.4,0-.2.2-.4.3-.6l-3.1,1.5c-.3.1-.5.3-.6.5ZM57.4,108.2c-.1.2-.2.4-.3.6l3.3-1.6c.2,0,.3-.2.4-.3,0-.2.2-.3.3-.6l-3.2,1.5c-.2,0-.3.2-.4.3ZM57.1,103.9c0,.3,0,.6.2.9s.4.4.6.4.5,0,.7-.3c.2-.2.3-.5.5-.8,0,0,.2,0,.3.1,0,0,.2,0,.3,0,.4,0,.6-.1.8-.4.2-.3.3-.7.3-1.1s-.1-.9-.3-1.4h-.2v.3c0,.5,0,.9-.1,1.4,0,.5-.2.7-.5.7s-.3-.2-.5-.6c-.1-.4-.2-.7-.3-1h-.2c0,.6,0,1.1-.2,1.6-.1.5-.3.8-.6.8s-.3-.1-.4-.4c0-.3-.1-.7-.2-1.2l-.2.2c0,.3-.1.5-.1.9Z"/>
          <path class="st2" d="M49.4,114.7c.6-.5,1-1.1,1.4-1.5s.5-1.1.5-1.8-.1-.8-.3-1.1c-.2-.3-.5-.4-.9-.4s-.5,0-.7.3c-.2.2-.3.4-.3.6,0,.4.1.6.3.7.2.1.5.3.9.4,0,.5-.1,1-.3,1.3s-.6.7-1.1,1.2l.3.4Z"/>
          <path class="st2" d="M53.8,101.9s0,0,0,0c-.2.2-.4.4-.6.6s-.5.3-.8.4c-.9.3-2.2.6-3.8.9s-3.1.6-4.6.8c-.7.1-1.3.2-1.9.3-.6,0-1.4.2-2.3.4l-.6,3,5.2-.9c1.2-.3,2.5-.6,3.8-.8,1.3-.3,2.5-.6,3.7-1.1,0,.2-.2.4-.3.6-.1.2-.2.4-.3.6-.1.3-.1.5,0,.6.2.2.4.1.5-.1.4-.8.8-1.7,1.2-2.5.4-.9.7-1.8,1.1-2.7,0,0,0,0,0,0Z"/>
          <path class="st2" d="M93.8,112.7v.4c.8.2,1.1.7,1.1,1.4,0,.9-.3,1.4-.8,1.7v.4c.4,0,.8-.3,1.2-1,.4-.7.6-1.4.6-2s-.1-1-.4-1.3c-.3-.4-.5-.6-.8-.6l-1.1,1.1ZM97,112.7v.4c.8.2,1.1.7,1.1,1.4,0,.9-.3,1.4-.8,1.7v.4c.4,0,.8-.3,1.2-1s.6-1.4.6-2-.1-1-.4-1.3-.5-.6-.8-.6l-1.1,1.1Z"/>
          <path class="st2" d="M64.3,98.2v-.5c-1-.3-1.5-1-1.5-1.9.1-1.2.5-1.9,1-2.3v-.5c-.5,0-1.1.5-1.6,1.4-.6.9-.8,1.8-.8,2.7s.2,1.3.5,1.8c.4.5.7.8,1,.8l1.4-1.5ZM68.5,98.2v-.5c-1-.3-1.5-1-1.5-1.9.1-1.2.5-1.9,1-2.3v-.5c-.5,0-1.1.5-1.6,1.4s-.8,1.8-.8,2.7.2,1.3.5,1.8.7.8,1,.8l1.4-1.5Z"/>
          <path class="st2" d="M73.5,103.7c-.6-.5-1.2-.7-1.8-.7s-.8.1-1.2.3c-1,.6-1.9,1.3-2.7,2.3-.9,1-1.7,2-2.4,3s-1.3,1.8-1.6,2.4h0c0,0,0,1.6,0,1.6.3-.3.7-.9,1.3-1.8s1.2-1.7,2-2.3c.7-.7,1.5-1.1,2.2-1.1h.1c.7,0,1.4.6,2,1.8.1.2.2.3.4.3s.2,0,.3-.2c.6-.6,1.1-1.2,1.7-1.9.5-.7,1-1.4,1.4-2.1-.4-.7-.9-1.2-1.5-1.7Z"/>
          <path class="st2" d="M79.8,113.5c-1.7.3-3.5.7-5.6,1l-1.7,3.4c.9-.2,1.8-.3,2.8-.5.9-.2,1.8-.3,2.8-.5l1.7-3.4Z"/>
          <path class="st2" d="M78.1,106.2c0,.2,0,.7,0,1.3,0,.5.1,1,.3,1.4.2.5.5.8,1,.8.5,0,1,0,1.6,0,.6-.1,1.2-.3,1.7-.5.6-.2,1-.4,1.3-.6,2.6-1.3,4.6-2.9,6-4.8.2-.3.5-.7.7-1,.2-.4.3-.8.3-1.3-.8.7-1.7,1.4-2.6,2.1-.9.7-1.9,1.3-2.9,1.8-.8.4-1.8.8-2.9,1.1s-2.3.4-3.4.3c0,0,0,0,0-.1l-1.1-.5Z"/>
          <path class="st2" d="M56.5,116.8c.3-.2.7-.5,1-.7.4-.3.6-.6.8-1,.2-.2.3-.5.4-.8,0-.3.2-.6.3-1,0-.5-.1-.7-.7-.7-.6,0-1,0-1.2,0-.2,0-.4.1-.6.4-.2.3-.4.6-.5.9-.1.2-.2.5-.3.7,0,.2-.2.4-.2.6-.1,0-.2,0-.4.1s-.2,0-.4.1c-.2,0-.4.1-.7.2-.4.1-.8.3-1.2.4-.3.1-.6.3-.9.5-.5.4-.9,1-1.2,1.8-.2.5-.4,1.3-.6,2.2,0,0,0,0,0,0,0,0,0,0,.1,0,.3-.6.7-1,1.2-1.4.4-.3,1-.7,1.8-1,.3-.1.7-.3,1-.4s.7-.3,1.1-.4c.3-.2.7-.4,1-.6Z"/>
          <path class="st2" d="M44.6,120.7c-.3.2-.6.4-.8.7-.4.6-.7,1.2-1.1,1.7-.4.6-.9,1-1.4,1.3-.4.2-.7.5-1,.8s-.6.7-.7,1.1c0,.2-.2.6-.2,1,0,.5,0,.9,0,1.3,0,.4.3.7.7.9.4.2.9.3,1.4.3.5,0,1,0,1.6,0,.5,0,.9-.2,1.2-.2,2.4-.6,4.3-1.5,5.9-2.9.3-.2.5-.5.8-.7.2-.3.4-.6.5-1-.8.5-1.7.9-2.5,1.3-.9.4-1.8.7-2.8.9-.8.2-1.6.3-2.7.4-1,0-2,0-2.9-.4,0,0,0-.1.2-.2,1-.5,1.9-1.5,2.5-2.7.1-.2.3-.4.4-.6.2-.2.4-.3.7-.4.3,0,.5.2.6.4s.2.5.2.7c0,.1,0,.1.2,0,.1,0,.2-.1.2-.2.2-.4.2-.9.2-1.3,0-.5,0-.9-.2-1.3-.2-.6-.5-.8-.9-.6Z"/>
          <path class="st2" d="M59.2,125s0,0,0,0c-.2.2-.5.3-.9.5s-.7.3-.9.3v.3c-.1,0,1.7.5,1.7.5.2-.2.4-.5.6-.9.2-.3.3-.6.4-.9.2-.5.3-1.1.3-1.7,0-1.1-.3-2-1-2.7l-1.2,2c.4.5.6,1,.8,1.4h0c0,.2.1.4.2.7,0,.2,0,.4,0,.4,0,0,0,0,0,0Z"/>
          <path class="st2" d="M75.2,122.2c-.2-.2-.5-.3-.8-.2-.6.1-1,.4-1.4.8s-.7.8-.9,1.2c-.5.6-.9,1.3-1.4,1.9s-1,1.2-1.6,1.7c-.3,0-.6,0-.8-.3-.2-.2-.3-.4-.4-.7-.1-.4-.2-1-.2-1.6,0-.7,0-1.2-.2-1.7-.1-.4-.3-.7-.6-.7-.3,0-.8.4-1.6,1.2-1,1.1-1.6,2.7-1.8,4.7.2-.3.3-.7.5-1,.2-.3.4-.7.6-1,.8-1,1.3-1.3,1.6-.9.3.4.5,1,.6,1.9,0,.5.1,1,.2,1.5s.3.9.6,1.1c.4.3.8.4,1.1,0,.5-.5.9-1.1,1.3-1.7.4-.7.7-1.3,1.1-1.9.5-.9,1-1.4,1.2-1.6.3-.2.5-.3.7-.2s.4.3.6.6c.2.3.5-.1.9-1.3.4-1.1.6-1.8.3-2Z"/>
          <path class="st2" d="M111.5,85.9c-.3-.2-.6-.2-.9-.1-.6.3-1.1.7-1.4,1.2s-.6,1.1-.8,1.6c-.4.8-.8,1.7-1.1,2.5s-.8,1.6-1.4,2.3c-.4.1-.7,0-.9-.2-.2-.2-.4-.4-.5-.7-.3-.5-.5-1.1-.6-1.8-.2-.8-.3-1.4-.6-1.9-.2-.5-.5-.7-.9-.7-.4,0-.9.6-1.5,1.8-.9,1.5-1.2,3.4-1,5.9.1-.4.2-.9.4-1.3.1-.4.3-.8.5-1.2.6-1.3,1.2-1.8,1.6-1.4.4.4.8,1,1.1,2,.2.6.4,1.2.6,1.7s.5,1,1,1.2c.5.3,1,.2,1.3-.2.5-.7.8-1.5,1.1-2.3.3-.8.6-1.7.9-2.5.4-1.1.8-1.8,1.1-2.1.3-.3.6-.4.8-.3s.5.2.8.5c.3.3.5-.3.8-1.7.3-1.4.2-2.2,0-2.4Z"/>
          <path class="st2" d="M82.9,127.5c0-.4-.2-.4-.5-.2,0,0-.2.2-.3.3-.4.6-.8.8-1.1.8-.3-.1-.5-.3-.6-.5h0c0-.1,0-.3-.1-.4,0-.3,0-.7,0-1,.1-.6.3-1.3.5-2.1.2-.8.5-1.5.9-2.1.1-.2.2-.4.2-.5,0-.1,0-.2,0-.1,0,0-.2,0-.2.2-.2.2-.3.3-.3.4-.5.6-.9,1.5-1.3,2.5-.4,1-.6,1.9-.8,2.8,0,.6,0,1.3,0,2.2,0,.9.6,1.3,1.5,1.3s1.4-.6,1.8-2c.2-.7.3-1.2.2-1.5Z"/>
          <path class="st2" d="M113.3,99.1c0-.2-.1-.2-.2,0,0,0,0,0-.1.1-.2.3-.4.4-.5.4-.1,0-.3-.1-.3-.2h0c0,0,0-.1,0-.2,0-.2,0-.3,0-.5,0-.3.1-.7.3-1.1.1-.4.3-.8.4-1,0-.1,0-.2.1-.2,0,0,0,0,0,0,0,0,0,0-.1,0,0,.1-.1.2-.2.2-.2.3-.5.7-.7,1.2-.2.5-.3,1-.4,1.4,0,.3,0,.6,0,1.1,0,.4.3.6.7.6s.7-.3.9-1c.1-.4.1-.6.1-.7Z"/>
          <path class="st2" d="M91.4,119.9s0,0,0,0c-.4.6-.9,1.2-1.3,1.7s-.8,1.2-1.1,1.9c-.7-1.2-1.5-2.4-2.5-3.7-.1.2-.3.5-.4.7-.1.2-.2.5-.3.7.6.7,1.1,1.4,1.6,2.1s.9,1.5,1.2,2.3c0,0,0,0,0,0s0,0,0,0c0,0,.1,0,.1,0,.1-.1.2-.3.3-.5,0-.2.1-.3.2-.5.3-.6.6-1.2.9-1.8s.7-1.1,1.1-1.6c0-.4,0-.9.2-1.3h0Z"/>
          <path class="st2" d="M94.3,104.1c1.2-.6,2.5-1.2,4-1.7,1.5-.5,2.9-1.1,4.3-1.6l1.1-1.8c-.7.2-1.4.5-2.2.8-.8.3-1.5.6-2.3.8-.7.3-1.4.5-2.1.8-.6.2-1.2.4-1.6.6h0l-1.3,2.1ZM94.3,106.7c1.2-.6,2.5-1.2,4-1.7,1.5-.5,2.9-1.1,4.3-1.6l1.1-1.8c-.7.2-1.4.5-2.2.8-.8.3-1.5.6-2.3.8s-1.4.5-2.1.8c-.6.2-1.2.4-1.6.6h0l-1.3,2.1Z"/>
          <path class="st2" d="M85.7,115.9c-1.2.6-1.8,1-1.9,1.1h.3c.5,0,1,0,1.5-.2.4,0,.9-.3,1.4-.5,1-.5,1.8-1.2,2.3-2.2.3-.5.4-1,.4-1.4s0-.6-.3-.8c-.3-.3-1.1-.5-2.4-.6h-.5c-1,0-1.6.2-1.9.5-.5.6-.9,1.2-1.1,1.8-.3.6-.4,1-.4,1.2h0c0,0,.2-.1.3-.3s.3-.3.4-.4c.3-.2.7-.3,1.3-.3s.5,0,.9,0c1.1.1,1.7.2,1.9.4h0c-.3.4-1.1.9-2.3,1.5Z"/>
          <path class="st2" d="M69.9,115.9s0,0,0,0c-.4.4-1,.6-1.8.8-.2,0-.5,0-.7,0-.5,0-1-.1-1.5-.4,0,0-.2,0-.2,0s0,0,0,0c-.6.3-1.1.8-1.4,1.3-.2.3-.3.6-.3.6s0,0,0,0c0,0,0,0,.2-.2.3-.3.5-.5.7-.6,0,0,.2-.1.3-.2,0,0,.1,0,.2,0s0,0,.2,0c.5.2.9.4,1.4.4s.4,0,.7,0c.7-.1,1.3-.4,1.8-.6l.8-1s0,0,0,0Z"/>
          <path class="st2" d="M74.3,94.3c-.6.5-1,1-1.3,1.7-.1.2-.2.5-.3.8,0,.3,0,.5,0,.8,0,.2.2.3.3.4s.3.2.4.2c.2,0,.3,0,.5,0,.2,0,.4-.1.5-.2l.4-.9c-.1,0-.2.1-.4.2-.2,0-.3.1-.5.1-.2,0-.3,0-.5,0-.1,0-.2-.2-.2-.4,0-.1,0-.3,0-.5,0-.2.2-.4.4-.6s.3-.4.6-.6c.2-.2.4-.4.7-.5.2-.2.5-.3.7-.4.2-.1.5-.2.7-.2.5-.1.8,0,1,0s.2.5.1.9c0,.1,0,.2,0,.2,0,0,0,0,0,0,0,0,0,0,.1,0,0,0,0,0,.1-.2,0,0,.1-.2.2-.3,0-.1,0-.3.1-.4,0-.1,0-.3,0-.4,0-.1,0-.3-.1-.4,0-.1-.2-.2-.3-.3s-.2-.1-.4-.1c-.1,0-.3,0-.5,0-.2,0-.3,0-.5.1-.7.2-1.4.6-1.9,1ZM75.6,97.9c-.2.1-.4.3-.6.4-.2.2-.5.3-.7.5s-.5.3-.6.4-.3.2-.5.3c-.1,0-.2.1-.2.1h.1c.4-.1.7-.2,1-.3s.6-.2.9-.4c.3-.1.5-.3.7-.5.2-.2.4-.4.7-.7,0,0,.1,0,.2.1,0,0,0,0,.1.1.1-.2.2-.3.2-.4,0-.1,0-.2,0-.3h0c0,0,0-.2,0-.2,0,0,0,0-.2-.1.1-.4.2-.7.2-1s0,0,0-.1c0-.3-.1-.4-.2-.5,0,0-.2,0-.2,0s-.2,0-.3,0c-.2,0-.4.2-.6.5-.2.2-.3.5-.4.6,0,0,0,.1,0,.2,0,.1,0,.2,0,.3,0,.1.2.3.3.4.1.1.3.2.5.3-.1.1-.2.2-.4.4ZM76.1,96.6c-.1,0-.2-.1-.3-.2,0,0,0,0,0-.1s0,0,0,0c0,0,0-.1.1-.2,0,0,.1,0,.2,0h0c0,0,.1,0,.2,0,0,0,.1.1.1.2,0,0,0,0,0,.1,0,.1,0,.2,0,.4-.1,0-.2-.1-.3-.2Z"/>
          <path class="st2" d="M105.3,111c-.5-1.1-1-2.2-1.5-3.3-.2.5-.4,1-.6,1.4-.2.5-.4.9-.6,1.4h0c0,.1,0,.3.2.4.1.2.2.4.3.5.6,1.1,1,2.4,1.4,3.9.2.8.3,1.7.3,2.7s0,1.5-.2,2.3c0,0,0,0,0,.2,0,0,0,0,0,0s0,0,0,0c.1,0,.2-.2.3-.4s.2-.3.2-.5c.3-.6.5-1.3.7-2,.1-.5.2-1.2.2-1.9s0-.5,0-.8c-.1-1.6-.4-2.9-.9-4Z"/>
        </g>
        <g>
          <path class="st2" d="M34.8,90.2c-.1.3-.2.5-.2.8s0,.4.2.6.3.2.5.2.4,0,.5-.2c.1-.1.2-.3.4-.5.1,0,.3.1.3.1,0,0,.1,0,.2,0,.3,0,.5-.1.6-.4s.2-.6.2-.9,0-.2,0-.4c0-.1,0-.3,0-.4h-.2c0,.4,0,.8-.1,1.1s-.3.5-.5.5-.2-.1-.2-.3c0-.3,0-.6,0-.9h-.1c0,.2,0,.5-.1,1-.1.5-.3.7-.5.7s-.3,0-.3-.2c0-.1,0-.3,0-.5v-.6h-.1Z"/>
          <path class="st2" d="M4,71c1.3-.7,2.4-1.4,3.2-2.1.8-.7,1.4-1.7,1.8-3s.2-1.4,0-2.1c-.3-.6-.7-1-1.4-1.2s-.9,0-1.3.1c-.4.2-.6.6-.8,1-.2.6-.1,1.1.2,1.5.3.3.8.7,1.5,1.1-.3,1-.7,1.7-1.2,2.1-.5.5-1.3,1-2.5,1.6l.4.8Z"/>
          <path class="st2" d="M18.9,94.2c.2.5.6.8,1.2,1s1.3,0,2-.4c.7-.5,1.1-1.1,1.4-1.9s.2-1.5,0-2.2c-.3-.7-.6-1.1-1.2-1.2s-1.3,0-1.9.5c-.6.6-1.1,1.4-1.4,2.4s-.2,1.3,0,1.8ZM22.5,91.4c.3.5.3,1.2,0,1.9s-.3.5-.8.6c-.4.2-.9.2-1.4,0s-.7-.4-.9-.9c-.2-.5-.2-.9,0-1.3s.4-.7.7-1c.4-.3.7-.4,1-.3.6.1,1,.4,1.3.9Z"/>
          <path class="st2" d="M13.9,64.8c-.2.5-.3,1-.3,1.5s.1.8.3,1.1.5.5.9.5.7-.1.9-.3c.2-.2.4-.5.7-1,.3.1.5.2.6.2.1,0,.3,0,.4,0,.5,0,.9-.2,1.2-.7s.3-1.1.3-1.7,0-.5,0-.7c0-.2,0-.5-.2-.7h-.3c0,.7,0,1.5-.3,2.1s-.5,1-1,1-.3-.2-.4-.6c0-.6-.1-1.1-.2-1.7h-.3c0,.3-.1.9-.3,1.9-.2.9-.5,1.3-.9,1.3s-.5-.1-.6-.4c0-.2-.1-.6-.1-.9v-1.1h-.2Z"/>
          <path class="st2" d="M34.8,102.2c.1,0,.2,0,.3,0,.4,0,.8-.2,1.2-.5.2-.2.4-.5.6-.7l.6.5v-.8c0,0,0,0,0,0,0,0-.2,0-.2-.1.1-.2.2-.3.3-.5s0-.4,0-.6c0-.5-.2-.8-.6-.8s-.5.2-.8.5c-.2.3-.3.7-.3,1,0,.2.1.4.2.5s.2.2.3.3c-.2.2-.5.4-.7.7-.3.2-.7.4-1.2.6,0,0,.2,0,.3,0ZM36.4,100.2c-.1-.1-.2-.3-.2-.5s0-.2,0-.3c0-.1.1-.2.3-.4,0,0,.2,0,.3,0,.2,0,.3,0,.4.2s.1.2.1.4,0,.3,0,.4c0,0,0,.2-.1.3,0,.1-.1.2-.2.2-.1,0-.3,0-.4-.1Z"/>
          <path class="st2" d="M17.9,112.1c0-.1.2-.2.3-.2.3,0,.5.2.5.5s0,.4-.2.6-.2.4-.3.6c.6-.1,1-.3,1.3-.5.3-.2.6-.5,1.1-.9.1,0,.3.2.4.3s.3.2.4.3v-.5c0,0,0-.2-.2-.3-.2-.1-.2-.2-.3-.2,0-.2.2-.4.3-.7.1-.2.2-.4.2-.6s0-.4-.2-.5c-.1-.2-.3-.2-.5-.2-.3,0-.6.1-.8.4-.3.3-.4.6-.4.9s0,.4.2.5c.1.2.3.3.5.5-.1.1-.3.3-.5.5-.2.1-.4.3-.7.4,0,0,0-.1,0-.4,0-.2,0-.4,0-.5,0-.3,0-.5-.1-.7,0-.2-.3-.3-.6-.3s-.4.1-.5.4c-.1.2-.2.5-.2.9v.3c.1-.3.2-.5.3-.6ZM20.5,110.3c.3,0,.5.1.5.4s0,.2,0,.3l-.3.4c-.2,0-.3,0-.4-.2-.1-.1-.2-.2-.2-.4s0-.2,0-.3c.1-.2.2-.3.4-.3Z"/>
          <path class="st2" d="M32.5,71.5c.4-.2.5-.5.5-.8l-2.3,1.3c-.2,0-.3.2-.4.3s-.2.3-.2.5l2.4-1.3Z"/>
          <path class="st2" d="M33.4,85.3c.1,0,.2,0,.3,0,.4,0,.8-.2,1.2-.5.2-.2.4-.5.6-.7l.6.5v-.8c0,0,0,0,0,0,0,0-.2,0-.2-.1.1-.2.2-.3.3-.5,0-.2,0-.4,0-.6,0-.5-.2-.8-.6-.8s-.5.2-.8.5c-.2.3-.3.7-.3,1,0,.2.1.4.2.5.1,0,.2.2.3.3-.2.2-.5.4-.7.7-.3.2-.7.4-1.2.6,0,0,.2,0,.3,0ZM35,83.3c-.1-.1-.2-.3-.2-.5s0-.2,0-.3c0-.1.1-.2.3-.4,0,0,.2,0,.3,0,.2,0,.3,0,.4.2s.1.2.1.4,0,.3,0,.4c0,0,0,.2-.1.3,0,.1-.1.2-.2.2-.1,0-.3,0-.4-.1Z"/>
          <path class="st2" d="M8.4,107.1c-7.7,3.2-10.1,10.6-9.6,12.1s.7,1.4,1.5,1.7,1.1.2,1.6,0c.5-.2.9-.6,1.1-1.2.3-.8.3-1.4,0-1.8-.3-.5-.9-1-1.7-1.5.9-2.4,7.2-9.2,7.2-9.2Z"/>
          <path class="st2" d="M17.3,82.1v.4c.8.2,1.1.7,1.1,1.4,0,.9-.3,1.4-.8,1.7v.4c.4,0,.8-.3,1.2-1,.4-.7.6-1.4.6-2s-.1-1-.4-1.3c-.3-.4-.5-.6-.8-.6l-1.1,1.1ZM20.4,82.1v.4c.8.2,1.1.7,1.1,1.4,0,.9-.3,1.4-.8,1.7v.4c.4,0,.8-.3,1.2-1s.6-1.4.6-2-.1-1-.4-1.3-.5-.6-.8-.6l-1.1,1.1Z"/>
          <path class="st2" d="M3.2,82.9c-1.7.3-3.5.7-5.6,1l-1.7,3.4c.9-.2,1.8-.3,2.8-.5.9-.2,1.8-.3,2.8-.5l1.7-3.4Z"/>
          <path class="st2" d="M1.6,75.7c0,.2,0,.7,0,1.3,0,.5.1,1,.3,1.4.2.5.5.8,1,.8.5,0,1,0,1.6,0,.6-.1,1.2-.3,1.7-.5.6-.2,1-.4,1.3-.6,2.6-1.3,4.6-2.9,6-4.8.2-.3.5-.7.7-1,.2-.4.3-.8.3-1.3-.8.7-1.7,1.4-2.6,2.1-.9.7-1.9,1.3-2.9,1.8-.8.4-1.8.8-2.9,1.1s-2.3.4-3.4.3c0,0,0,0,0-.1l-1.1-.5Z"/>
          <path class="st2" d="M35,55.3c-.3-.2-.6-.2-.9-.1-.6.3-1.1.7-1.4,1.2s-.6,1.1-.8,1.6c-.4.8-.8,1.7-1.1,2.5s-.8,1.6-1.4,2.3c-.4.1-.7,0-.9-.2-.2-.2-.4-.4-.5-.7-.3-.5-.5-1.1-.6-1.8-.2-.8-.3-1.4-.6-1.9-.2-.5-.5-.7-.9-.7-.4,0-.9.6-1.5,1.8-.9,1.5-1.2,3.4-1,5.9.1-.4.2-.9.4-1.3.1-.4.3-.8.5-1.2.6-1.3,1.2-1.8,1.6-1.4.4.4.8,1,1.1,2,.2.6.4,1.2.6,1.7s.5,1,1,1.2c.5.3,1,.2,1.3-.2.5-.7.8-1.5,1.1-2.3.3-.8.6-1.7.9-2.5.4-1.1.8-1.8,1.1-2.1.3-.3.6-.4.8-.3s.5.2.8.5c.3.3.5-.3.8-1.7.3-1.4.2-2.2,0-2.4Z"/>
          <path class="st2" d="M6.3,97c0-.4-.2-.4-.5-.2,0,0-.2.2-.3.3-.4.6-.8.8-1.1.8-.3-.1-.5-.3-.6-.5h0c0-.1,0-.3-.1-.4,0-.3,0-.7,0-1,.1-.6.3-1.3.5-2.1.2-.8.5-1.5.9-2.1.1-.2.2-.4.2-.5,0-.1,0-.2,0-.1,0,0-.2,0-.2.2-.2.2-.3.3-.3.4-.5.6-.9,1.5-1.3,2.5-.4,1-.6,1.9-.8,2.8,0,.6,0,1.3,0,2.2,0,.9.6,1.3,1.5,1.3s1.4-.6,1.8-2c.2-.7.3-1.2.2-1.5Z"/>
          <path class="st2" d="M25.3,106.1c0-.2-.1-.2-.2,0,0,0,0,0-.1.1-.2.3-.4.4-.5.4-.1,0-.3-.1-.3-.2h0c0,0,0-.1,0-.2,0-.2,0-.3,0-.5,0-.3.1-.7.3-1.1.1-.4.3-.8.4-1,0-.1,0-.2.1-.2,0,0,0,0,0,0,0,0,0,0-.1,0,0,.1-.1.2-.2.2-.2.3-.5.7-.7,1.2-.2.5-.3,1-.4,1.4,0,.3,0,.6,0,1.1,0,.4.3.6.7.6s.7-.3.9-1c.1-.4.1-.6.1-.7Z"/>
          <path class="st2" d="M36.7,110c0-.2-.1-.2-.2,0,0,0,0,0-.1.1-.2.3-.4.4-.5.4-.1,0-.3-.1-.3-.2h0c0,0,0-.1,0-.2,0-.2,0-.3,0-.5,0-.3.1-.7.3-1.1.1-.4.3-.8.4-1,0-.1,0-.2.1-.2,0,0,0,0,0,0,0,0,0,0-.1,0,0,.1-.1.2-.2.2-.2.3-.5.7-.7,1.2-.2.5-.3,1-.4,1.4,0,.3,0,.6,0,1.1,0,.4.3.6.7.6s.7-.3.9-1c.1-.4.1-.6.1-.7Z"/>
          <path class="st2" d="M36.7,68.5c0-.2-.1-.2-.2,0,0,0,0,0-.1.1-.2.3-.4.4-.5.4-.1,0-.3-.1-.3-.2h0c0,0,0-.1,0-.2,0-.2,0-.3,0-.5,0-.3.1-.7.3-1.1.1-.4.3-.8.4-1,0-.1,0-.2.1-.2,0,0,0,0,0,0,0,0,0,0-.1,0,0,.1-.1.2-.2.2-.2.3-.5.7-.7,1.2-.2.5-.3,1-.4,1.4,0,.3,0,.6,0,1.1,0,.4.3.6.7.6s.7-.3.9-1c.1-.4.1-.6.1-.7Z"/>
          <path class="st2" d="M47.4,99.5c0-.2-.1-.2-.2,0,0,0,0,0-.1.1-.2.3-.4.4-.5.4-.1,0-.3-.1-.3-.2h0c0,0,0-.1,0-.2,0-.2,0-.3,0-.5,0-.3.1-.7.3-1.1.1-.4.3-.8.4-1,0-.1,0-.2.1-.2,0,0,0,0,0,0,0,0,0,0-.1,0,0,.1-.1.2-.2.2-.2.3-.5.7-.7,1.2-.2.5-.3,1-.4,1.4,0,.3,0,.6,0,1.1,0,.4.3.6.7.6s.7-.3.9-1c.1-.4.1-.6.1-.7Z"/>
          <path class="st2" d="M14.8,89.3s0,0,0,0c-.4.6-.9,1.2-1.3,1.7s-.8,1.2-1.1,1.9c-.7-1.2-1.5-2.4-2.5-3.7-.1.2-.3.5-.4.7-.1.2-.2.5-.3.7.6.7,1.1,1.4,1.6,2.1s.9,1.5,1.2,2.3c0,0,0,0,0,0s0,0,0,0c0,0,.1,0,.1,0,.1-.1.2-.3.3-.5,0-.2.1-.3.2-.5.3-.6.6-1.2.9-1.8s.7-1.1,1.1-1.6c0-.4,0-.9.2-1.3h0Z"/>
          <path class="st2" d="M17.7,73.5c1.2-.6,2.5-1.2,4-1.7,1.5-.5,2.9-1.1,4.3-1.6l1.1-1.8c-.7.2-1.4.5-2.2.8-.8.3-1.5.6-2.3.8-.7.3-1.4.5-2.1.8-.6.2-1.2.4-1.6.6h0l-1.3,2.1ZM17.7,76.1c1.2-.6,2.5-1.2,4-1.7,1.5-.5,2.9-1.1,4.3-1.6l1.1-1.8c-.7.2-1.4.5-2.2.8-.8.3-1.5.6-2.3.8s-1.4.5-2.1.8c-.6.2-1.2.4-1.6.6h0l-1.3,2.1Z"/>
          <path class="st2" d="M20.7,100.5c.6-.3,1.2-.5,1.8-.8.7-.2,1.3-.5,2-.7l.5-.8c-.3.1-.7.2-1,.4-.4.1-.7.3-1.1.4-.3.1-.7.2-1,.4-.3.1-.5.2-.7.3h0l-.6,1Z"/>
          <path class="st2" d="M30.4,97.6c-.3.2-.6.5-1,.7-.4.2-.8.5-1.1.7s-.7.5-1,.7-.6.4-.7.5c-.2.1-.3.2-.3.2h.2c.6-.2,1.2-.3,1.7-.5s.9-.4,1.4-.6c.4-.2.8-.5,1.2-.8.4-.3.7-.7,1.1-1.2.1,0,.2.1.3.2,0,0,.2.1.2.2.2-.3.3-.5.3-.7,0-.2.1-.3.1-.4h0c0-.2,0-.3-.1-.3,0,0-.1-.2-.2-.2.2-.7.3-1.2.3-1.6s0-.2,0-.2c0-.4-.2-.7-.4-.9-.1,0-.3-.1-.4-.1s-.3,0-.4.1c-.3.1-.7.4-1,.8-.3.4-.5.7-.6,1,0,.1,0,.2,0,.3,0,.2,0,.3.1.5.1.2.3.4.5.6.2.2.5.3.8.5-.2.2-.4.4-.7.6ZM31.1,95.5c-.2,0-.3-.2-.5-.4,0,0,0-.1,0-.2s0,0,0,0c0,0,.1-.2.2-.2.1,0,.2-.1.3-.1h0c0,0,.2,0,.3,0,.1,0,.2.2.2.4,0,0,0,.1,0,.2,0,.2,0,.4,0,.6-.2,0-.4-.2-.5-.3Z"/>
          <path class="st2" d="M9.2,85.3c-1.2.6-1.8,1-1.9,1.1h.3c.5,0,1,0,1.5-.2.4,0,.9-.3,1.4-.5,1-.5,1.8-1.2,2.3-2.2.3-.5.4-1,.4-1.4s0-.6-.3-.8c-.3-.3-1.1-.5-2.4-.6h-.5c-1,0-1.6.2-1.9.5-.5.6-.9,1.2-1.1,1.8-.3.6-.4,1-.4,1.2h0c0,0,.2-.1.3-.3s.3-.3.4-.4c.3-.2.7-.3,1.3-.3s.5,0,.9,0c1.1.1,1.7.2,1.9.4h0c-.3.4-1.1.9-2.3,1.5Z"/>
          <path class="st2" d="M17,119.6c.2-.1.4-.3.6-.4.2-.2.5-.3.7-.5.2-.2.5-.3.6-.4.2-.1.3-.2.5-.3.1,0,.2-.1.2-.1h-.1c-.4.1-.7.2-1,.3-.3.1-.6.2-.8.4-.3.1-.5.3-.7.5-.2.2-.4.4-.7.7,0,0-.1,0-.2-.1,0,0,0,0-.1-.1-.1.2-.2.3-.2.4,0,.1,0,.2,0,.3h0c0,0,0,.2,0,.2,0,0,0,0,.2.1-.1.4-.2.7-.2,1s0,0,0,.1c0,.3.1.4.2.5,0,0,.2,0,.2,0s.2,0,.3,0c.2,0,.4-.2.6-.5.2-.2.3-.5.4-.6,0,0,0-.1,0-.2,0-.1,0-.2,0-.3,0-.1-.2-.3-.3-.4-.1-.1-.3-.2-.5-.3,0-.1.2-.2.4-.4ZM16.5,120.9c.1,0,.2.1.3.2,0,0,0,0,0,.1s0,0,0,0c0,0,0,.1-.1.2,0,0-.1,0-.2,0h0c0,0-.1,0-.2,0,0,0-.1-.1-.1-.2,0,0,0,0,0-.1,0-.1,0-.2,0-.4.1,0,.2.1.3.2Z"/>
          <path class="st2" d="M-2.2,63.7c-.6.5-1,1-1.3,1.7-.1.2-.2.5-.3.8,0,.3,0,.5,0,.8,0,.2.2.3.3.4s.3.2.4.2c.2,0,.3,0,.5,0,.2,0,.4-.1.5-.2l.4-.9c-.1,0-.2.1-.4.2-.2,0-.3.1-.5.1-.2,0-.3,0-.5,0-.1,0-.2-.2-.2-.4,0-.1,0-.3,0-.5,0-.2.2-.4.4-.6s.3-.4.6-.6c.2-.2.4-.4.7-.5.2-.2.5-.3.7-.4.2-.1.5-.2.7-.2.5-.1.8,0,1,0s.2.5.1.9c0,.1,0,.2,0,.2,0,0,0,0,0,0,0,0,0,0,.1,0,0,0,0,0,.1-.2,0,0,.1-.2.2-.3,0-.1,0-.3.1-.4,0-.1,0-.3,0-.4,0-.1,0-.3-.1-.4,0-.1-.2-.2-.3-.3s-.2-.1-.4-.1c-.1,0-.3,0-.5,0-.2,0-.3,0-.5.1-.7.2-1.4.6-1.9,1ZM-.9,67.3c-.2.1-.4.3-.6.4-.2.2-.5.3-.7.5s-.5.3-.6.4-.3.2-.5.3c-.1,0-.2.1-.2.1h.1c.4-.1.7-.2,1-.3s.6-.2.9-.4c.3-.1.5-.3.7-.5.2-.2.4-.4.7-.7,0,0,.1,0,.2.1,0,0,0,0,.1.1.1-.2.2-.3.2-.4,0-.1,0-.2,0-.3H.5c0,0,0-.2,0-.2,0,0,0,0-.2-.1.1-.4.2-.7.2-1s0,0,0-.1c0-.3-.1-.4-.2-.5,0,0-.2,0-.2,0s-.2,0-.3,0c-.2,0-.4.2-.6.5-.2.2-.3.5-.4.6,0,0,0,.1,0,.2,0,.1,0,.2,0,.3,0,.1.2.3.3.4.1.1.3.2.5.3-.1.1-.2.2-.4.4ZM-.4,66c-.1,0-.2-.1-.3-.2,0,0,0,0,0-.1s0,0,0,0c0,0,0-.1.1-.2,0,0,.1,0,.2,0h0c0,0,.1,0,.2,0,0,0,.1.1.1.2,0,0,0,0,0,.1,0,.1,0,.2,0,.4-.1,0-.2-.1-.3-.2Z"/>
          <path class="st2" d="M-3.5,104.9c.6.2,1.2.5,1.6.9.4.4.4.9,0,1.3-.3.4-1,.8-2,1.2v.3c-.1,0,0,.4,0,.4,2.2-.4,3.7-1.1,4.4-2,.3-.5.5-1,.4-1.5s-.3-.9-.6-1.3c-.2-.3-.5-.5-1-.8s-.8-.4-1.1-.5l.6-1.3h-1l-1.5,3.3Z"/>
          <path class="st2" d="M17.1,106c.4.1.8.3,1,.6.3.3.3.6,0,.9-.2.3-.6.5-1.3.8v.2c0,0,0,.3,0,.3,1.5-.3,2.4-.7,2.9-1.3.2-.4.3-.7.3-1s-.2-.6-.4-.9c-.1-.2-.4-.4-.6-.5s-.5-.3-.7-.3l.4-.9h-.7l-.9,2.1Z"/>
          <path class="st2" d="M28.7,80.4c-.5-1.1-1-2.2-1.5-3.3-.2.5-.4,1-.6,1.4-.2.5-.4.9-.6,1.4h0c0,.1,0,.3.2.4.1.2.2.4.3.5.6,1.1,1,2.4,1.4,3.9.2.8.3,1.7.3,2.7s0,1.5-.2,2.3c0,0,0,0,0,.2,0,0,0,0,0,0s0,0,0,0c.1,0,.2-.2.3-.4s.2-.3.2-.5c.3-.6.5-1.3.7-2,.1-.5.2-1.2.2-1.9s0-.5,0-.8c-.1-1.6-.4-2.9-.9-4Z"/>
          <path class="st2" d="M14.6,103c.2-.3.5-1,1-2,.4-1,.9-2.2,1.3-3.5l-2.1.7-.7,2c-.4-.5-.8-1-1.2-1.5-.4-.5-.7-.7-1-.7h0c-.6,0-1,.4-1.4.9-.3.5-.5,1.1-.6,1.8,0,.3,0,.7,0,1s0,.7,0,1.1c.1.7.3,1.3.6,1.7.4.7.8,1.5,1.2,2.5.3.8.5,1.6.5,2.4s0,.5,0,.8c0,0,.2-.1.2-.3.2-.7.4-1.3.6-2,.2-.5.2-1,.2-1.6s0-.4,0-.7c-.2-.8-.6-1.6-1-2.5-.5-.8-.8-1.6-1.1-2.4.2-.2.4-.4.6-.4s.2,0,.3,0c.3.2.6.4,1,.8.3.4.6.7.9,1.1.3.4.6.6.8.7h0s0,0,.2-.1h0Z"/>
          <path class="st2" d="M30.1,105.6c-.2,2-.8,3.6-1.9,5-1.1,1.4-2.1,2.4-3,3.1-.2.2-.5.4-.8.5-.3.2-.5.4-.7.6,0,0,0,.1,0,.2,0,0,0,0,0,0,0,0,0,0,0,0h0c1.5,0,2.7,0,3.5,0,.3,0,.6,0,.9,0,.7,0,1.5,0,2.4,0,.3-.3.7-.5,1-.8.3-.3.7-.6,1-.9-.8,0-1.6,0-2.2,0s-.5,0-.8,0c-.8,0-1.7,0-2.8.2.4-.3,1-.9,1.7-1.8.7-.8,1.4-1.7,2.1-2.7.6-1,1.2-1.9,1.5-2.7.2-.5.3-.9.3-1.3s0-.5-.2-.7c-.7.5-1.4.8-2.2,1.2Z"/>
          <polygon class="st2" points="10.6 120.5 7.2 117 10.6 113.6 14.1 117 10.6 120.5"/>
        </g>
        <g>
          <path class="st2" d="M128.4,3.3c-.4-.1-.8-.2-1.2-.2s-.5,0-.7.1-.3.2-.3.4,0,.3.3.4.4.1.7.1c.4,0,.7,0,1-.1s.7-.2,1.3-.4c-.4-.2-.7-.3-1.1-.4ZM128.7,1.3c-.4-.5-.7-.7-.9-.7s-.3,0-.4.2,0,.2,0,.4c0,.3.2.6.7.9.5.3,1.1.7,1.8,1-.4-.7-.7-1.3-1.1-1.8ZM128.1,5.2c-.5.3-.8.7-.8,1.1s.1.4.4.4.7-.2,1-.7c.3-.5.7-1.1,1.1-1.8-.6.3-1.2.6-1.7,1ZM129.9,6c0,.3-.1.7-.1,1.1s0,.4.2.6c.1.2.2.3.4.3s.3,0,.4-.3c0-.2.1-.4.1-.6,0-.4,0-.8-.1-1.2,0-.4-.2-.8-.4-1.3-.2.6-.4,1-.4,1.4ZM130.7,1.5c0-.4.1-.8.1-1.2s0-.4,0-.6-.2-.2-.3-.2-.3,0-.4.2c0,.2-.1.4-.1.6,0,.4,0,.8.2,1.3s.2.8.4,1.2c.1-.5.2-.9.3-1.3ZM129.9,3.7c0,.1,0,.2.2.4.1.1.2.2.4.2s.2,0,.4-.2c.1-.1.2-.2.2-.4s0-.2-.2-.4c-.1-.1-.2-.2-.4-.2s-.2,0-.4.1c-.1.1-.2.3-.2.5ZM132.7,2.1c.5-.4.8-.7.8-1s-.1-.5-.4-.5c-.4,0-.7.2-1,.7-.3.5-.7,1-1.1,1.8.6-.3,1.2-.6,1.7-1ZM132.1,6c.3.5.7.7,1,.7s.4-.1.4-.4-.2-.6-.7-1-1.1-.7-1.8-1.1c.4.7.7,1.3,1.1,1.8ZM132.6,4.1c.3,0,.7.1,1,.1s.5,0,.7-.1c.2,0,.3-.2.3-.4s0-.3-.2-.4c-.2-.1-.4-.2-.8-.2s-.7,0-.9.1c-.3,0-.7.2-1.3.4.5.2.9.3,1.3.4Z"/>
          <path class="st2" d="M118.4,43.1c-.1.3-.2.5-.2.8s0,.4.2.6.3.2.5.2.4,0,.5-.2c.1-.1.2-.3.4-.5.1,0,.3.1.3.1,0,0,.1,0,.2,0,.3,0,.5-.1.6-.4s.2-.6.2-.9,0-.2,0-.4c0-.1,0-.3,0-.4h-.2c0,.4,0,.8-.1,1.1s-.3.5-.5.5-.2-.1-.2-.3c0-.3,0-.6,0-.9h-.1c0,.2,0,.5-.1,1-.1.5-.3.7-.5.7s-.3,0-.3-.2c0-.1,0-.3,0-.5v-.6h-.1Z"/>
          <path class="st2" d="M114.7,28.3c.2,0,.3,0,.4,0,.8,0,3.9-2.6,4.5-3.2.3-.4.7-.8,1-1.2l1.1.8.2-1.4c0,0-.2,0-.3-.1-.1,0-.3-.1-.3-.2.2-.3.4-.6.5-.9s.1-.7.1-1c0-.9-.3-1.4-1-1.4s-.9.3-1.3.9c-.4.6-.6,1.1-.5,1.7,0,.4.2.7.3.9s.4.3.6.5c-.4.3-.8.7-1.3,1.2-.5.4-3.6,3-4.6,3.4.2,0,.3,0,.5.1ZM119.9,22.5c-.2-.2-.4-.5-.4-.8s0-.4.1-.6c0-.2.2-.4.4-.6.2-.1.3-.2.5-.2.3,0,.5.1.6.3s.2.4.2.7,0,.5,0,.6c0,.1-.1.3-.2.5-.1.2-.2.3-.4.4-.2,0-.5,0-.7-.2Z"/>
          <path class="st2" d="M132,57.1c0,.2-.2.5-.3.8l4.1-2.4c.2-.1.3-.2.5-.4.1-.2.2-.3.2-.5v-.3s-3.9,2.3-3.9,2.3c-.3.1-.5.3-.6.5ZM135.6,53.4c.4-.2.6-.4.7-.5,0-.1.1-.4.2-.8l-3.9,2.3c-.3.2-.5.4-.6.5s-.2.4-.2.8l3.9-2.3Z"/>
          <path class="st2" d="M133.9,14.9c-.1.2-.2.4-.3.6l3.4-1.7c.2,0,.3-.2.4-.4,0-.2.2-.4.3-.6l-3.1,1.5c-.3.1-.5.3-.6.5ZM133.9,16.4c-.1.2-.2.4-.3.6l3.3-1.6c.2,0,.3-.2.4-.3,0-.2.2-.3.3-.6l-3.2,1.5c-.2,0-.3.2-.4.3ZM133.7,12.2c0,.3,0,.6.2.9s.4.4.6.4.5,0,.7-.3c.2-.2.3-.5.5-.8,0,0,.2,0,.3.1,0,0,.2,0,.3,0,.4,0,.6-.1.8-.4.2-.3.3-.7.3-1.1s-.1-.9-.3-1.4h-.2v.3c0,.5,0,.9-.1,1.4,0,.5-.2.7-.5.7s-.3-.2-.5-.6c-.1-.4-.2-.7-.3-1h-.2c0,.6,0,1.1-.2,1.6-.1.5-.3.8-.6.8s-.3-.1-.4-.4c0-.3-.1-.7-.2-1.2l-.2.2c0,.3-.1.5-.1.9Z"/>
          <path class="st2" d="M141.1,53.7c0,.5.1,1,.4,1.4.3.4.6.6,1.1.6s.8-.2,1.1-.5c.3-.3.6-.8.8-1.3.4.2.7.3,1,.3.6,0,1-.2,1.3-.7.3-.5.4-1.1.4-1.9s-.2-1.6-.5-2.4h-.3v.6c0,.7,0,1.5-.2,2.3-.1.8-.4,1.2-.8,1.2s-.5-.3-.7-.9c-.2-.6-.4-1.2-.6-1.8l-.3.2c0,.8,0,1.6-.2,2.6-.1,1-.5,1.5-.9,1.5s-.5-.2-.7-.7-.3-1.2-.4-2.1l-.3.3c-.1.4-.2.9-.2,1.5ZM141.8,58.4c-.1.2-.2.6-.4,1.1l4.9-2.6c.3-.2.6-.4.8-.7.2-.3.3-.7.4-1.1l-5.1,2.9c-.3.1-.5.3-.6.5Z"/>
          <path class="st2" d="M125.9,22.9c.6-.5,1-1.1,1.4-1.5s.5-1.1.5-1.8-.1-.8-.3-1.1c-.2-.3-.5-.4-.9-.4s-.5,0-.7.3c-.2.2-.3.4-.3.6,0,.4.1.6.3.7.2.1.5.3.9.4,0,.5-.1,1-.3,1.3s-.6.7-1.1,1.2l.3.4Z"/>
          <path class="st2" d="M161.5,46c-7.7,3.2-10.1,10.6-9.6,12.1s.7,1.4,1.5,1.7,1.1.2,1.6,0c.5-.2.9-.6,1.1-1.2.3-.8.3-1.4,0-1.8-.3-.5-.9-1-1.7-1.5.9-2.4,7.2-9.2,7.2-9.2Z"/>
          <path class="st2" d="M130.4,10.2s0,0,0,0c-.2.2-.4.4-.6.6s-.5.3-.8.4c-.9.3-2.2.6-3.8.9s-3.1.6-4.6.8c-.7.1-1.3.2-1.9.3-.6,0-1.4.2-2.3.4l-.6,3,5.2-.9c1.2-.3,2.5-.6,3.8-.8,1.3-.3,2.5-.6,3.7-1.1,0,.2-.2.4-.3.6-.1.2-.2.4-.3.6-.1.3-.1.5,0,.6.2.2.4.1.5-.1.4-.8.8-1.7,1.2-2.5.4-.9.7-1.8,1.1-2.7,0,0,0,0,0,0Z"/>
          <path class="st2" d="M140.9,6.5v-.5c-1-.3-1.5-1-1.5-1.9.1-1.2.5-1.9,1-2.3v-.5c-.5,0-1.1.5-1.6,1.4-.6.9-.8,1.8-.8,2.7s.2,1.3.5,1.8c.4.5.7.8,1,.8l1.4-1.5ZM145,6.5v-.5c-1-.3-1.5-1-1.5-1.9.1-1.2.5-1.9,1-2.3v-.5c-.5,0-1.1.5-1.6,1.4s-.8,1.8-.8,2.7.2,1.3.5,1.8.7.8,1,.8l1.4-1.5Z"/>
          <path class="st2" d="M150.1,11.9c-.6-.5-1.2-.7-1.8-.7s-.8.1-1.2.3c-1,.6-1.9,1.3-2.7,2.3-.9,1-1.7,2-2.4,3s-1.3,1.8-1.6,2.4h0c0,0,0,1.6,0,1.6.3-.3.7-.9,1.3-1.8s1.2-1.7,2-2.3c.7-.7,1.5-1.1,2.2-1.1h.1c.7,0,1.4.6,2,1.8.1.2.2.3.4.3s.2,0,.3-.2c.6-.6,1.1-1.2,1.7-1.9.5-.7,1-1.4,1.4-2.1-.4-.7-.9-1.2-1.5-1.7Z"/>
          <path class="st2" d="M156.3,21.8c-1.7.3-3.5.7-5.6,1l-1.7,3.4c.9-.2,1.8-.3,2.8-.5.9-.2,1.8-.3,2.8-.5l1.7-3.4Z"/>
          <path class="st2" d="M136.8,41.9c-1.4,1.2-2.9,2.5-4.6,4l.3,4.1c.8-.7,1.5-1.3,2.3-2,.8-.7,1.5-1.3,2.3-2l-.3-4.1Z"/>
          <path class="st2" d="M133.1,25c.3-.2.7-.5,1-.7.4-.3.6-.6.8-1,.2-.2.3-.5.4-.8,0-.3.2-.6.3-1,0-.5-.1-.7-.7-.7-.6,0-1,0-1.2,0-.2,0-.4.1-.6.4-.2.3-.4.6-.5.9-.1.2-.2.5-.3.7,0,.2-.2.4-.2.6-.1,0-.2,0-.4.1s-.2,0-.4.1c-.2,0-.4.1-.7.2-.4.1-.8.3-1.2.4-.3.1-.6.3-.9.5-.5.4-.9,1-1.2,1.8-.2.5-.4,1.3-.6,2.2,0,0,0,0,0,0,0,0,0,0,.1,0,.3-.6.7-1,1.2-1.4.4-.3,1-.7,1.8-1,.3-.1.7-.3,1-.4s.7-.3,1.1-.4c.3-.2.7-.4,1-.6Z"/>
          <path class="st2" d="M121.1,28.9c-.3.2-.6.4-.8.7-.4.6-.7,1.2-1.1,1.7-.4.6-.9,1-1.4,1.3-.4.2-.7.5-1,.8s-.6.7-.7,1.1c0,.2-.2.6-.2,1,0,.5,0,.9,0,1.3,0,.4.3.7.7.9.4.2.9.3,1.4.3.5,0,1,0,1.6,0,.5,0,.9-.2,1.2-.2,2.4-.6,4.3-1.5,5.9-2.9.3-.2.5-.5.8-.7.2-.3.4-.6.5-1-.8.5-1.7.9-2.5,1.3-.9.4-1.8.7-2.8.9-.8.2-1.6.3-2.7.4-1,0-2,0-2.9-.4,0,0,0-.1.2-.2,1-.5,1.9-1.5,2.5-2.7.1-.2.3-.4.4-.6.2-.2.4-.3.7-.4.3,0,.5.2.6.4s.2.5.2.7c0,.1,0,.1.2,0,.1,0,.2-.1.2-.2.2-.4.2-.9.2-1.3,0-.5,0-.9-.2-1.3-.2-.6-.5-.8-.9-.6Z"/>
          <path class="st2" d="M135.7,33.3s0,0,0,0c-.2.2-.5.3-.9.5s-.7.3-.9.3v.3c-.1,0,1.7.5,1.7.5.2-.2.4-.5.6-.9.2-.3.3-.6.4-.9.2-.5.3-1.1.3-1.7,0-1.1-.3-2-1-2.7l-1.2,2c.4.5.6,1,.8,1.4h0c0,.2.1.4.2.7,0,.2,0,.4,0,.4,0,0,0,0,0,0Z"/>
          <path class="st2" d="M151.8,30.5c-.2-.2-.5-.3-.8-.2-.6.1-1,.4-1.4.8s-.7.8-.9,1.2c-.5.6-.9,1.3-1.4,1.9s-1,1.2-1.6,1.7c-.3,0-.6,0-.8-.3-.2-.2-.3-.4-.4-.7-.1-.4-.2-1-.2-1.6,0-.7,0-1.2-.2-1.7-.1-.4-.3-.7-.6-.7-.3,0-.8.4-1.6,1.2-1,1.1-1.6,2.7-1.8,4.7.2-.3.3-.7.5-1,.2-.3.4-.7.6-1,.8-1,1.3-1.3,1.6-.9.3.4.5,1,.6,1.9,0,.5.1,1,.2,1.5s.3.9.6,1.1c.4.3.8.4,1.1,0,.5-.5.9-1.1,1.3-1.7.4-.7.7-1.3,1.1-1.9.5-.9,1-1.4,1.2-1.6.3-.2.5-.3.7-.2s.4.3.6.6c.2.3.5-.1.9-1.3.4-1.1.6-1.8.3-2Z"/>
          <path class="st2" d="M131.7,36.5c0-.2-.1-.2-.2,0,0,0,0,0-.1.1-.2.3-.4.4-.5.4-.1,0-.3-.1-.3-.2h0c0,0,0-.1,0-.2,0-.2,0-.3,0-.5,0-.3.1-.7.3-1.1.1-.4.3-.8.4-1,0-.1,0-.2.1-.2,0,0,0,0,0,0,0,0,0,0-.1,0,0,.1-.1.2-.2.2-.2.3-.5.7-.7,1.2-.2.5-.3,1-.4,1.4,0,.3,0,.6,0,1.1,0,.4.3.6.7.6s.7-.3.9-1c.1-.4.1-.6.1-.7Z"/>
          <path class="st2" d="M128.6,57.6c0-.2-.1-.2-.2,0,0,0,0,0-.1.1-.2.3-.4.4-.5.4-.1,0-.3-.1-.3-.2h0c0,0,0-.1,0-.2,0-.2,0-.3,0-.5,0-.3.1-.7.3-1.1.1-.4.3-.8.4-1,0-.1,0-.2.1-.2,0,0,0,0,0,0,0,0,0,0-.1,0,0,.1-.1.2-.2.2-.2.3-.5.7-.7,1.2-.2.5-.3,1-.4,1.4,0,.3,0,.6,0,1.1,0,.4.3.6.7.6s.7-.3.9-1c.1-.4.1-.6.1-.7Z"/>
          <path class="st2" d="M114.3,43.4s0,0,0,0c-.3.4-.6.8-.9,1.2s-.5.9-.8,1.3c-.5-.8-1.1-1.7-1.8-2.6,0,.2-.2.3-.3.5,0,.2-.2.3-.2.5.4.5.8,1,1.1,1.5s.6,1,.8,1.6c0,0,0,0,0,0s0,0,0,0c0,0,0,0,.1,0,0,0,.2-.2.2-.3,0-.1,0-.2.1-.3.2-.4.4-.9.6-1.3s.5-.8.8-1.1c0-.3,0-.6.1-.9h0Z"/>
          <path class="st2" d="M118.3,52.1c-.7.3-1.1.6-1.1.7h.2c.3,0,.6,0,.9-.1.3,0,.6-.2.8-.3.6-.3,1.1-.7,1.4-1.3.2-.3.2-.6.2-.8s0-.3-.2-.5c-.2-.2-.7-.3-1.4-.3h-.3c-.6,0-1,0-1.1.3-.3.4-.5.7-.7,1.1-.2.4-.2.6-.2.7h0s0,0,.2-.2.2-.2.3-.2c.2-.1.4-.2.8-.2s.3,0,.5,0c.7,0,1,.1,1.1.2h0c-.2.3-.6.6-1.4.9Z"/>
          <path class="st2" d="M146.4,24.2s0,0,0,0c-.4.4-1,.6-1.8.8-.2,0-.5,0-.7,0-.5,0-1-.1-1.5-.4,0,0-.2,0-.2,0s0,0,0,0c-.6.3-1.1.8-1.4,1.3-.2.3-.3.6-.3.6s0,0,0,0c0,0,0,0,.2-.2.3-.3.5-.5.7-.6,0,0,.2-.1.3-.2,0,0,.1,0,.2,0s0,0,.2,0c.5.2.9.4,1.4.4s.4,0,.7,0c.7-.1,1.3-.4,1.8-.6l.8-1s0,0,0,0Z"/>
          <path class="st2" d="M150.8,2.6c-.6.5-1,1-1.3,1.7-.1.2-.2.5-.3.8,0,.3,0,.5,0,.8,0,.2.2.3.3.4s.3.2.4.2c.2,0,.3,0,.5,0,.2,0,.4-.1.5-.2l.4-.9c-.1,0-.2.1-.4.2-.2,0-.3.1-.5.1-.2,0-.3,0-.5,0-.1,0-.2-.2-.2-.4,0-.1,0-.3,0-.5,0-.2.2-.4.4-.6s.3-.4.6-.6c.2-.2.4-.4.7-.5.2-.2.5-.3.7-.4.2-.1.5-.2.7-.2.5-.1.8,0,1,0s.2.5.1.9c0,.1,0,.2,0,.2,0,0,0,0,0,0,0,0,0,0,.1,0,0,0,0,0,.1-.2,0,0,.1-.2.2-.3,0-.1,0-.3.1-.4,0-.1,0-.3,0-.4,0-.1,0-.3-.1-.4,0-.1-.2-.2-.3-.3s-.2-.1-.4-.1c-.1,0-.3,0-.5,0-.2,0-.3,0-.5.1-.7.2-1.4.6-1.9,1ZM152.2,6.2c-.2.1-.4.3-.6.4-.2.2-.5.3-.7.5s-.5.3-.6.4-.3.2-.5.3c-.1,0-.2.1-.2.1h.1c.4-.1.7-.2,1-.3s.6-.2.9-.4c.3-.1.5-.3.7-.5.2-.2.4-.4.7-.7,0,0,.1,0,.2.1,0,0,0,0,.1.1.1-.2.2-.3.2-.4,0-.1,0-.2,0-.3h0c0,0,0-.2,0-.2,0,0,0,0-.2-.1.1-.4.2-.7.2-1s0,0,0-.1c0-.3-.1-.4-.2-.5,0,0-.2,0-.2,0s-.2,0-.3,0c-.2,0-.4.2-.6.5-.2.2-.3.5-.4.6,0,0,0,.1,0,.2,0,.1,0,.2,0,.3,0,.1.2.3.3.4.1.1.3.2.5.3-.1.1-.2.2-.4.4ZM152.6,4.8c-.1,0-.2-.1-.3-.2,0,0,0,0,0-.1s0,0,0,0c0,0,0-.1.1-.2,0,0,.1,0,.2,0h0c0,0,.1,0,.2,0,0,0,.1.1.1.2,0,0,0,0,0,.1,0,.1,0,.2,0,.4-.1,0-.2-.1-.3-.2Z"/>
          <path class="st2" d="M128.1,48.4c.1-.2.2-.3.3-.5.1-.2.2-.3.2-.4,0,0,0,0,0,0,0,0,0,0,0,0s0,0-.1,0c-.4.1-.9.4-1.4.9s-.9.9-1.2,1.4c-.2.3-.3.5-.3.7,0,0,0,0,0,.1,0,.2.1.4.3.6.2.2.4.3.7.3.2,0,.3.1.3.2h0c0,0,0,.1-.2.2,0,0-.2,0-.5.2-.3.1-.7.3-1,.4-.3.2-.6.3-.8.4-.1,0-.2.1-.2.2s0,0,.1,0c.1,0,.2,0,.4,0s.4,0,.6,0c.4,0,.7-.1.9-.2.4-.2.6-.4.9-.8.2-.3.5-.6.7-1,.3-.4.4-.6.4-.8s0,0,0,0c0-.2-.1-.3-.3-.4-.2,0-.4-.2-.6-.3-.2,0-.4-.2-.5-.4.2-.2.4-.3.6-.4.2,0,.4-.1.6-.2,0,0,.1-.2.2-.3Z"/>
          <path class="st2" d="M143.5,46c0,0,0-.1,0-.1,0,0-.1,0-.2,0-.8.7-1.3.7-1.5,0-.2-.7-.1-1.7.2-2.9s.5-1.8.5-2l-.6.6h0c-1.1,3.4-1.5,5.4-1.2,6.1.4.7.8,1,1.3.9,1,0,1.5-.9,1.5-2.6Z"/>
          <path class="st2" d="M149.5,43.8c.6.2,1.2.5,1.6.9.4.4.4.9,0,1.3-.3.4-1,.8-2,1.2v.3c-.1,0,0,.4,0,.4,2.2-.4,3.7-1.1,4.4-2,.3-.5.5-1,.4-1.5s-.3-.9-.6-1.3c-.2-.3-.5-.5-1-.8s-.8-.4-1.1-.5l.6-1.3h-1l-1.5,3.3Z"/>
          <path class="st2" d="M120.7,62.2c.2-.3.5-.9.9-1.8.4-.9.8-1.9,1.2-3.1l-1.9.6-.6,1.8c-.3-.4-.7-.9-1-1.3-.3-.4-.6-.6-.9-.6h0c-.5,0-.9.3-1.2.8-.3.5-.5,1-.6,1.6,0,.3,0,.6,0,.9s0,.6,0,.9c0,.6.3,1.1.5,1.5.4.6.7,1.3,1.1,2.2.3.7.4,1.4.4,2.1s0,.5,0,.7c0,0,.1-.1.2-.2.1-.6.3-1.2.5-1.8.1-.4.2-.9.2-1.4s0-.4,0-.6c-.2-.7-.5-1.4-.9-2.2-.4-.7-.7-1.4-1-2.1.2-.2.3-.3.5-.3s.2,0,.3,0c.3.2.6.4.9.7.3.3.6.7.8,1,.3.3.5.5.7.6h0s0,0,.1,0h0Z"/>
          <polygon class="st2" points="126.2 43.9 124.1 41.8 126.2 39.7 128.3 41.8 126.2 43.9"/>
          <polygon class="st2" points="129.3 43.9 127.2 41.8 129.3 39.7 131.3 41.8 129.3 43.9"/>
        </g>
        <g>
          <path class="st2" d="M111.3,59.6c-.1.3-.2.5-.2.8s0,.4.2.6.3.2.5.2.4,0,.5-.2c.1-.1.2-.3.4-.5.1,0,.3.1.3.1,0,0,.1,0,.2,0,.3,0,.5-.1.6-.4s.2-.6.2-.9,0-.2,0-.4c0-.1,0-.3,0-.4h-.2c0,.4,0,.8-.1,1.1s-.3.5-.5.5-.2-.1-.2-.3c0-.3,0-.6,0-.9h-.1c0,.2,0,.5-.1,1-.1.5-.3.7-.5.7s-.3,0-.3-.2c0-.1,0-.3,0-.5v-.6h-.1Z"/>
          <path class="st2" d="M51.9,33.9c-.4-.1-.8-.2-1.2-.2s-.5,0-.7.1-.3.2-.3.4,0,.3.3.4.4.1.7.1c.4,0,.7,0,1-.1s.7-.2,1.3-.4c-.4-.2-.7-.3-1.1-.4ZM52.2,31.9c-.4-.5-.7-.7-.9-.7s-.3,0-.4.2,0,.2,0,.4c0,.3.2.6.7.9.5.3,1.1.7,1.8,1-.4-.7-.7-1.3-1.1-1.8ZM51.6,35.8c-.5.3-.8.7-.8,1.1s.1.4.4.4.7-.2,1-.7c.3-.5.7-1.1,1.1-1.8-.6.3-1.2.6-1.7,1ZM53.4,36.6c0,.3-.1.7-.1,1.1s0,.4.2.6c.1.2.2.3.4.3s.3,0,.4-.3c0-.2.1-.4.1-.6,0-.4,0-.8-.1-1.2,0-.4-.2-.8-.4-1.3-.2.6-.4,1-.4,1.4ZM54.2,32.1c0-.4.1-.8.1-1.2s0-.4,0-.6-.2-.2-.3-.2-.3,0-.4.2c0,.2-.1.4-.1.6,0,.4,0,.8.2,1.3s.2.8.4,1.2c.1-.5.2-.9.3-1.3ZM53.3,34.3c0,.1,0,.2.2.4.1.1.2.2.4.2s.2,0,.4-.2c.1-.1.2-.2.2-.4s0-.2-.2-.4c-.1-.1-.2-.2-.4-.2s-.2,0-.4.1c-.1.1-.2.3-.2.5ZM56.2,32.7c.5-.4.8-.7.8-1s-.1-.5-.4-.5c-.4,0-.7.2-1,.7-.3.5-.7,1-1.1,1.8.6-.3,1.2-.6,1.7-1ZM55.5,36.6c.3.5.7.7,1,.7s.4-.1.4-.4-.2-.6-.7-1-1.1-.7-1.8-1.1c.4.7.7,1.3,1.1,1.8ZM56.1,34.7c.3,0,.7.1,1,.1s.5,0,.7-.1c.2,0,.3-.2.3-.4s0-.3-.2-.4c-.2-.1-.4-.2-.8-.2s-.7,0-.9.1c-.3,0-.7.2-1.3.4.5.2.9.3,1.3.4Z"/>
          <path class="st2" d="M80.6,40.5c1.3-.7,2.4-1.4,3.2-2.1.8-.7,1.4-1.7,1.8-3s.2-1.4,0-2.1c-.3-.6-.7-1-1.4-1.2s-.9,0-1.3.1c-.4.2-.6.6-.8,1-.2.6-.1,1.1.2,1.5.3.3.8.7,1.5,1.1-.3,1-.7,1.7-1.2,2.1-.5.5-1.3,1-2.5,1.6l.4.8Z"/>
          <path class="st2" d="M95.4,63.6c.2.5.6.8,1.2,1s1.3,0,2-.4c.7-.5,1.1-1.1,1.4-1.9s.2-1.5,0-2.2c-.3-.7-.6-1.1-1.2-1.2s-1.3,0-1.9.5c-.6.6-1.1,1.4-1.4,2.4s-.2,1.3,0,1.8ZM99.1,60.8c.3.5.3,1.2,0,1.9s-.3.5-.8.6c-.4.2-.9.2-1.4,0s-.7-.4-.9-.9c-.2-.5-.2-.9,0-1.3s.4-.7.7-1c.4-.3.7-.4,1-.3.6.1,1,.4,1.3.9Z"/>
          <path class="st2" d="M41.8,73.6c-.1.3-.2.5-.2.8s0,.4.2.6.3.2.5.2.4,0,.5-.2c.1-.1.2-.3.4-.5.1,0,.3.1.3.1,0,0,.1,0,.2,0,.3,0,.5-.1.6-.4s.2-.6.2-.9,0-.2,0-.4c0-.1,0-.3,0-.4h-.2c0,.4,0,.8-.1,1.1s-.3.5-.5.5-.2-.1-.2-.3c0-.3,0-.6,0-.9h-.1c0,.2,0,.5-.1,1-.1.5-.3.7-.5.7s-.3,0-.3-.2c0-.1,0-.3,0-.5v-.6h-.1Z"/>
          <path class="st2" d="M90.4,34.3c-.2.5-.3,1-.3,1.5s.1.8.3,1.1.5.5.9.5.7-.1.9-.3c.2-.2.4-.5.7-1,.3.1.5.2.6.2.1,0,.3,0,.4,0,.5,0,.9-.2,1.2-.7s.3-1.1.3-1.7,0-.5,0-.7c0-.2,0-.5-.2-.7h-.3c0,.7,0,1.5-.3,2.1s-.5,1-1,1-.3-.2-.4-.6c0-.6-.1-1.1-.2-1.7h-.3c0,.3-.1.9-.3,1.9-.2.9-.5,1.3-.9,1.3s-.5-.1-.6-.4c0-.2-.1-.6-.1-.9v-1.1h-.2Z"/>
          <path class="st2" d="M38.1,58.9c.2,0,.3,0,.4,0,.8,0,3.9-2.6,4.5-3.2.3-.4.7-.8,1-1.2l1.1.8.2-1.4c0,0-.2,0-.3-.1-.1,0-.3-.1-.3-.2.2-.3.4-.6.5-.9s.1-.7.1-1c0-.9-.3-1.4-1-1.4s-.9.3-1.3.9c-.4.6-.6,1.1-.5,1.7,0,.4.2.7.3.9s.4.3.6.5c-.4.3-.8.7-1.3,1.2-.5.4-3.6,3-4.6,3.4.2,0,.3,0,.5.1ZM43.3,53.1c-.2-.2-.4-.5-.4-.8s0-.4.1-.6c0-.2.2-.4.4-.6.2-.1.3-.2.5-.2.3,0,.5.1.6.3s.2.4.2.7,0,.5,0,.6c0,.1-.1.3-.2.5-.1.2-.2.3-.4.4-.2,0-.5,0-.7-.2Z"/>
          <path class="st2" d="M111.3,71.6c.1,0,.2,0,.3,0,.4,0,.8-.2,1.2-.5.2-.2.4-.5.6-.7l.6.5v-.8c0,0,0,0,0,0,0,0-.2,0-.2-.1.1-.2.2-.3.3-.5s0-.4,0-.6c0-.5-.2-.8-.6-.8s-.5.2-.8.5c-.2.3-.3.7-.3,1,0,.2.1.4.2.5s.2.2.3.3c-.2.2-.5.4-.7.7-.3.2-.7.4-1.2.6,0,0,.2,0,.3,0ZM112.9,69.6c-.1-.1-.2-.3-.2-.5s0-.2,0-.3c0-.1.1-.2.3-.4,0,0,.2,0,.3,0,.2,0,.3,0,.4.2s.1.2.1.4,0,.3,0,.4c0,0,0,.2-.1.3,0,.1-.1.2-.2.2-.1,0-.3,0-.4-.1Z"/>
          <path class="st2" d="M94.4,81.6c0-.1.2-.2.3-.2.3,0,.5.2.5.5s0,.4-.2.6-.2.4-.3.6c.6-.1,1-.3,1.3-.5.3-.2.6-.5,1.1-.9.1,0,.3.2.4.3s.3.2.4.3v-.5c0,0,0-.2-.2-.3-.2-.1-.2-.2-.3-.2,0-.2.2-.4.3-.7.1-.2.2-.4.2-.6s0-.4-.2-.5c-.1-.2-.3-.2-.5-.2-.3,0-.6.1-.8.4-.3.3-.4.6-.4.9s0,.4.2.5c.1.2.3.3.5.5-.1.1-.3.3-.5.5-.2.1-.4.3-.7.4,0,0,0-.1,0-.4,0-.2,0-.4,0-.5,0-.3,0-.5-.1-.7,0-.2-.3-.3-.6-.3s-.4.1-.5.4c-.1.2-.2.5-.2.9v.3c.1-.3.2-.5.3-.6ZM97,79.7c.3,0,.5.1.5.4s0,.2,0,.3l-.3.4c-.2,0-.3,0-.4-.2-.1-.1-.2-.2-.2-.4s0-.2,0-.3c.1-.2.2-.3.4-.3Z"/>
          <path class="st2" d="M55.4,87.7c0,.2-.2.5-.3.8l4.1-2.4c.2-.1.3-.2.5-.4.1-.2.2-.3.2-.5v-.3s-3.9,2.3-3.9,2.3c-.3.1-.5.3-.6.5ZM59,84c.4-.2.6-.4.7-.5,0-.1.1-.4.2-.8l-3.9,2.3c-.3.2-.5.4-.6.5s-.2.4-.2.8l3.9-2.3Z"/>
          <path class="st2" d="M109,40.9c.4-.2.5-.5.5-.8l-2.3,1.3c-.2,0-.3.2-.4.3s-.2.3-.2.5l2.4-1.3Z"/>
          <path class="st2" d="M109.9,54.7c.1,0,.2,0,.3,0,.4,0,.8-.2,1.2-.5.2-.2.4-.5.6-.7l.6.5v-.8c0,0,0,0,0,0,0,0-.2,0-.2-.1.1-.2.2-.3.3-.5,0-.2,0-.4,0-.6,0-.5-.2-.8-.6-.8s-.5.2-.8.5c-.2.3-.3.7-.3,1,0,.2.1.4.2.5.1,0,.2.2.3.3-.2.2-.5.4-.7.7-.3.2-.7.4-1.2.6,0,0,.2,0,.3,0ZM111.5,52.7c-.1-.1-.2-.3-.2-.5s0-.2,0-.3c0-.1.1-.2.3-.4,0,0,.2,0,.3,0,.2,0,.3,0,.4.2s.1.2.1.4,0,.3,0,.4c0,0,0,.2-.1.3,0,.1-.1.2-.2.2-.1,0-.3,0-.4-.1Z"/>
          <path class="st2" d="M57.3,45.5c-.1.2-.2.4-.3.6l3.4-1.7c.2,0,.3-.2.4-.4,0-.2.2-.4.3-.6l-3.1,1.5c-.3.1-.5.3-.6.5ZM57.4,47c-.1.2-.2.4-.3.6l3.3-1.6c.2,0,.3-.2.4-.3,0-.2.2-.3.3-.6l-3.2,1.5c-.2,0-.3.2-.4.3ZM57.1,42.7c0,.3,0,.6.2.9s.4.4.6.4.5,0,.7-.3c.2-.2.3-.5.5-.8,0,0,.2,0,.3.1,0,0,.2,0,.3,0,.4,0,.6-.1.8-.4.2-.3.3-.7.3-1.1s-.1-.9-.3-1.4h-.2v.3c0,.5,0,.9-.1,1.4,0,.5-.2.7-.5.7s-.3-.2-.5-.6c-.1-.4-.2-.7-.3-1h-.2c0,.6,0,1.1-.2,1.6-.1.5-.3.8-.6.8s-.3-.1-.4-.4c0-.3-.1-.7-.2-1.2l-.2.2c0,.3-.1.5-.1.9Z"/>
          <path class="st2" d="M64.6,84.2c0,.5.1,1,.4,1.4.3.4.6.6,1.1.6s.8-.2,1.1-.5c.3-.3.6-.8.8-1.3.4.2.7.3,1,.3.6,0,1-.2,1.3-.7.3-.5.4-1.1.4-1.9s-.2-1.6-.5-2.4h-.3v.6c0,.7,0,1.5-.2,2.3-.1.8-.4,1.2-.8,1.2s-.5-.3-.7-.9c-.2-.6-.4-1.2-.6-1.8l-.3.2c0,.8,0,1.6-.2,2.6-.1,1-.5,1.5-.9,1.5s-.5-.2-.7-.7-.3-1.2-.4-2.1l-.3.3c-.1.4-.2.9-.2,1.5ZM65.3,89c-.1.2-.2.6-.4,1.1l4.9-2.6c.3-.2.6-.4.8-.7.2-.3.3-.7.4-1.1l-5.1,2.9c-.3.1-.5.3-.6.5Z"/>
          <path class="st2" d="M49.4,53.5c.6-.5,1-1.1,1.4-1.5s.5-1.1.5-1.8-.1-.8-.3-1.1c-.2-.3-.5-.4-.9-.4s-.5,0-.7.3c-.2.2-.3.4-.3.6,0,.4.1.6.3.7.2.1.5.3.9.4,0,.5-.1,1-.3,1.3s-.6.7-1.1,1.2l.3.4Z"/>
          <path class="st2" d="M85,76.5c-7.7,3.2-10.1,10.6-9.6,12.1s.7,1.4,1.5,1.7,1.1.2,1.6,0c.5-.2.9-.6,1.1-1.2.3-.8.3-1.4,0-1.8-.3-.5-.9-1-1.7-1.5.9-2.4,7.2-9.2,7.2-9.2Z"/>
          <path class="st2" d="M53.8,40.8s0,0,0,0c-.2.2-.4.4-.6.6s-.5.3-.8.4c-.9.3-2.2.6-3.8.9s-3.1.6-4.6.8c-.7.1-1.3.2-1.9.3-.6,0-1.4.2-2.3.4l-.6,3,5.2-.9c1.2-.3,2.5-.6,3.8-.8,1.3-.3,2.5-.6,3.7-1.1,0,.2-.2.4-.3.6-.1.2-.2.4-.3.6-.1.3-.1.5,0,.6.2.2.4.1.5-.1.4-.8.8-1.7,1.2-2.5.4-.9.7-1.8,1.1-2.7,0,0,0,0,0,0Z"/>
          <path class="st2" d="M93.8,51.5v.4c.8.2,1.1.7,1.1,1.4,0,.9-.3,1.4-.8,1.7v.4c.4,0,.8-.3,1.2-1,.4-.7.6-1.4.6-2s-.1-1-.4-1.3c-.3-.4-.5-.6-.8-.6l-1.1,1.1ZM97,51.5v.4c.8.2,1.1.7,1.1,1.4,0,.9-.3,1.4-.8,1.7v.4c.4,0,.8-.3,1.2-1s.6-1.4.6-2-.1-1-.4-1.3-.5-.6-.8-.6l-1.1,1.1Z"/>
          <path class="st2" d="M64.3,37v-.5c-1-.3-1.5-1-1.5-1.9.1-1.2.5-1.9,1-2.3v-.5c-.5,0-1.1.5-1.6,1.4-.6.9-.8,1.8-.8,2.7s.2,1.3.5,1.8c.4.5.7.8,1,.8l1.4-1.5ZM68.5,37v-.5c-1-.3-1.5-1-1.5-1.9.1-1.2.5-1.9,1-2.3v-.5c-.5,0-1.1.5-1.6,1.4s-.8,1.8-.8,2.7.2,1.3.5,1.8.7.8,1,.8l1.4-1.5Z"/>
          <path class="st2" d="M73.5,42.5c-.6-.5-1.2-.7-1.8-.7s-.8.1-1.2.3c-1,.6-1.9,1.3-2.7,2.3-.9,1-1.7,2-2.4,3s-1.3,1.8-1.6,2.4h0c0,0,0,1.6,0,1.6.3-.3.7-.9,1.3-1.8s1.2-1.7,2-2.3c.7-.7,1.5-1.1,2.2-1.1h.1c.7,0,1.4.6,2,1.8.1.2.2.3.4.3s.2,0,.3-.2c.6-.6,1.1-1.2,1.7-1.9.5-.7,1-1.4,1.4-2.1-.4-.7-.9-1.2-1.5-1.7Z"/>
          <path class="st2" d="M79.8,52.4c-1.7.3-3.5.7-5.6,1l-1.7,3.4c.9-.2,1.8-.3,2.8-.5.9-.2,1.8-.3,2.8-.5l1.7-3.4Z"/>
          <path class="st2" d="M60.2,72.5c-1.4,1.2-2.9,2.5-4.6,4l.3,4.1c.8-.7,1.5-1.3,2.3-2,.8-.7,1.5-1.3,2.3-2l-.3-4.1Z"/>
          <path class="st2" d="M78.1,45.1c0,.2,0,.7,0,1.3,0,.5.1,1,.3,1.4.2.5.5.8,1,.8.5,0,1,0,1.6,0,.6-.1,1.2-.3,1.7-.5.6-.2,1-.4,1.3-.6,2.6-1.3,4.6-2.9,6-4.8.2-.3.5-.7.7-1,.2-.4.3-.8.3-1.3-.8.7-1.7,1.4-2.6,2.1-.9.7-1.9,1.3-2.9,1.8-.8.4-1.8.8-2.9,1.1s-2.3.4-3.4.3c0,0,0,0,0-.1l-1.1-.5Z"/>
          <path class="st2" d="M56.5,55.6c.3-.2.7-.5,1-.7.4-.3.6-.6.8-1,.2-.2.3-.5.4-.8,0-.3.2-.6.3-1,0-.5-.1-.7-.7-.7-.6,0-1,0-1.2,0-.2,0-.4.1-.6.4-.2.3-.4.6-.5.9-.1.2-.2.5-.3.7,0,.2-.2.4-.2.6-.1,0-.2,0-.4.1s-.2,0-.4.1c-.2,0-.4.1-.7.2-.4.1-.8.3-1.2.4-.3.1-.6.3-.9.5-.5.4-.9,1-1.2,1.8-.2.5-.4,1.3-.6,2.2,0,0,0,0,0,0,0,0,0,0,.1,0,.3-.6.7-1,1.2-1.4.4-.3,1-.7,1.8-1,.3-.1.7-.3,1-.4s.7-.3,1.1-.4c.3-.2.7-.4,1-.6Z"/>
          <path class="st2" d="M44.6,59.5c-.3.2-.6.4-.8.7-.4.6-.7,1.2-1.1,1.7-.4.6-.9,1-1.4,1.3-.4.2-.7.5-1,.8s-.6.7-.7,1.1c0,.2-.2.6-.2,1,0,.5,0,.9,0,1.3,0,.4.3.7.7.9.4.2.9.3,1.4.3.5,0,1,0,1.6,0,.5,0,.9-.2,1.2-.2,2.4-.6,4.3-1.5,5.9-2.9.3-.2.5-.5.8-.7.2-.3.4-.6.5-1-.8.5-1.7.9-2.5,1.3-.9.4-1.8.7-2.8.9-.8.2-1.6.3-2.7.4-1,0-2,0-2.9-.4,0,0,0-.1.2-.2,1-.5,1.9-1.5,2.5-2.7.1-.2.3-.4.4-.6.2-.2.4-.3.7-.4.3,0,.5.2.6.4s.2.5.2.7c0,.1,0,.1.2,0,.1,0,.2-.1.2-.2.2-.4.2-.9.2-1.3,0-.5,0-.9-.2-1.3-.2-.6-.5-.8-.9-.6Z"/>
          <path class="st2" d="M59.2,63.8s0,0,0,0c-.2.2-.5.3-.9.5s-.7.3-.9.3v.3c-.1,0,1.7.5,1.7.5.2-.2.4-.5.6-.9.2-.3.3-.6.4-.9.2-.5.3-1.1.3-1.7,0-1.1-.3-2-1-2.7l-1.2,2c.4.5.6,1,.8,1.4h0c0,.2.1.4.2.7,0,.2,0,.4,0,.4,0,0,0,0,0,0Z"/>
          <path class="st2" d="M75.2,61c-.2-.2-.5-.3-.8-.2-.6.1-1,.4-1.4.8s-.7.8-.9,1.2c-.5.6-.9,1.3-1.4,1.9s-1,1.2-1.6,1.7c-.3,0-.6,0-.8-.3-.2-.2-.3-.4-.4-.7-.1-.4-.2-1-.2-1.6,0-.7,0-1.2-.2-1.7-.1-.4-.3-.7-.6-.7-.3,0-.8.4-1.6,1.2-1,1.1-1.6,2.7-1.8,4.7.2-.3.3-.7.5-1,.2-.3.4-.7.6-1,.8-1,1.3-1.3,1.6-.9.3.4.5,1,.6,1.9,0,.5.1,1,.2,1.5s.3.9.6,1.1c.4.3.8.4,1.1,0,.5-.5.9-1.1,1.3-1.7.4-.7.7-1.3,1.1-1.9.5-.9,1-1.4,1.2-1.6.3-.2.5-.3.7-.2s.4.3.6.6c.2.3.5-.1.9-1.3.4-1.1.6-1.8.3-2Z"/>
          <path class="st2" d="M111.5,24.7c-.3-.2-.6-.2-.9-.1-.6.3-1.1.7-1.4,1.2s-.6,1.1-.8,1.6c-.4.8-.8,1.7-1.1,2.5s-.8,1.6-1.4,2.3c-.4.1-.7,0-.9-.2-.2-.2-.4-.4-.5-.7-.3-.5-.5-1.1-.6-1.8-.2-.8-.3-1.4-.6-1.9-.2-.5-.5-.7-.9-.7-.4,0-.9.6-1.5,1.8-.9,1.5-1.2,3.4-1,5.9.1-.4.2-.9.4-1.3.1-.4.3-.8.5-1.2.6-1.3,1.2-1.8,1.6-1.4.4.4.8,1,1.1,2,.2.6.4,1.2.6,1.7s.5,1,1,1.2c.5.3,1,.2,1.3-.2.5-.7.8-1.5,1.1-2.3.3-.8.6-1.7.9-2.5.4-1.1.8-1.8,1.1-2.1.3-.3.6-.4.8-.3s.5.2.8.5c.3.3.5-.3.8-1.7.3-1.4.2-2.2,0-2.4Z"/>
          <path class="st2" d="M82.9,66.4c0-.4-.2-.4-.5-.2,0,0-.2.2-.3.3-.4.6-.8.8-1.1.8-.3-.1-.5-.3-.6-.5h0c0-.1,0-.3-.1-.4,0-.3,0-.7,0-1,.1-.6.3-1.3.5-2.1.2-.8.5-1.5.9-2.1.1-.2.2-.4.2-.5,0-.1,0-.2,0-.1,0,0-.2,0-.2.2-.2.2-.3.3-.3.4-.5.6-.9,1.5-1.3,2.5-.4,1-.6,1.9-.8,2.8,0,.6,0,1.3,0,2.2,0,.9.6,1.3,1.5,1.3s1.4-.6,1.8-2c.2-.7.3-1.2.2-1.5Z"/>
          <path class="st2" d="M101.9,75.6c0-.2-.1-.2-.2,0,0,0,0,0-.1.1-.2.3-.4.4-.5.4-.1,0-.3-.1-.3-.2h0c0,0,0-.1,0-.2,0-.2,0-.3,0-.5,0-.3.1-.7.3-1.1.1-.4.3-.8.4-1,0-.1,0-.2.1-.2,0,0,0,0,0,0,0,0,0,0-.1,0,0,.1-.1.2-.2.2-.2.3-.5.7-.7,1.2-.2.5-.3,1-.4,1.4,0,.3,0,.6,0,1.1,0,.4.3.6.7.6s.7-.3.9-1c.1-.4.1-.6.1-.7Z"/>
          <path class="st2" d="M113.3,79.4c0-.2-.1-.2-.2,0,0,0,0,0-.1.1-.2.3-.4.4-.5.4-.1,0-.3-.1-.3-.2h0c0,0,0-.1,0-.2,0-.2,0-.3,0-.5,0-.3.1-.7.3-1.1.1-.4.3-.8.4-1,0-.1,0-.2.1-.2,0,0,0,0,0,0,0,0,0,0-.1,0,0,.1-.1.2-.2.2-.2.3-.5.7-.7,1.2-.2.5-.3,1-.4,1.4,0,.3,0,.6,0,1.1,0,.4.3.6.7.6s.7-.3.9-1c.1-.4.1-.6.1-.7Z"/>
          <path class="st2" d="M113.3,37.9c0-.2-.1-.2-.2,0,0,0,0,0-.1.1-.2.3-.4.4-.5.4-.1,0-.3-.1-.3-.2h0c0,0,0-.1,0-.2,0-.2,0-.3,0-.5,0-.3.1-.7.3-1.1.1-.4.3-.8.4-1,0-.1,0-.2.1-.2,0,0,0,0,0,0,0,0,0,0-.1,0,0,.1-.1.2-.2.2-.2.3-.5.7-.7,1.2-.2.5-.3,1-.4,1.4,0,.3,0,.6,0,1.1,0,.4.3.6.7.6s.7-.3.9-1c.1-.4.1-.6.1-.7Z"/>
          <path class="st2" d="M55.2,67.1c0-.2-.1-.2-.2,0,0,0,0,0-.1.1-.2.3-.4.4-.5.4-.1,0-.3-.1-.3-.2h0c0,0,0-.1,0-.2,0-.2,0-.3,0-.5,0-.3.1-.7.3-1.1.1-.4.3-.8.4-1,0-.1,0-.2.1-.2,0,0,0,0,0,0,0,0,0,0-.1,0,0,.1-.1.2-.2.2-.2.3-.5.7-.7,1.2-.2.5-.3,1-.4,1.4,0,.3,0,.6,0,1.1,0,.4.3.6.7.6s.7-.3.9-1c.1-.4.1-.6.1-.7Z"/>
          <path class="st2" d="M123.9,68.9c0-.2-.1-.2-.2,0,0,0,0,0-.1.1-.2.3-.4.4-.5.4-.1,0-.3-.1-.3-.2h0c0,0,0-.1,0-.2,0-.2,0-.3,0-.5,0-.3.1-.7.3-1.1.1-.4.3-.8.4-1,0-.1,0-.2.1-.2,0,0,0,0,0,0,0,0,0,0-.1,0,0,.1-.1.2-.2.2-.2.3-.5.7-.7,1.2-.2.5-.3,1-.4,1.4,0,.3,0,.6,0,1.1,0,.4.3.6.7.6s.7-.3.9-1c.1-.4.1-.6.1-.7Z"/>
          <path class="st2" d="M52.1,88.2c0-.2-.1-.2-.2,0,0,0,0,0-.1.1-.2.3-.4.4-.5.4-.1,0-.3-.1-.3-.2h0c0,0,0-.1,0-.2,0-.2,0-.3,0-.5,0-.3.1-.7.3-1.1.1-.4.3-.8.4-1,0-.1,0-.2.1-.2,0,0,0,0,0,0,0,0,0,0-.1,0,0,.1-.1.2-.2.2-.2.3-.5.7-.7,1.2-.2.5-.3,1-.4,1.4,0,.3,0,.6,0,1.1,0,.4.3.6.7.6s.7-.3.9-1c.1-.4.1-.6.1-.7Z"/>
          <path class="st2" d="M91.4,58.7s0,0,0,0c-.4.6-.9,1.2-1.3,1.7s-.8,1.2-1.1,1.9c-.7-1.2-1.5-2.4-2.5-3.7-.1.2-.3.5-.4.7-.1.2-.2.5-.3.7.6.7,1.1,1.4,1.6,2.1s.9,1.5,1.2,2.3c0,0,0,0,0,0s0,0,0,0c0,0,.1,0,.1,0,.1-.1.2-.3.3-.5,0-.2.1-.3.2-.5.3-.6.6-1.2.9-1.8s.7-1.1,1.1-1.6c0-.4,0-.9.2-1.3h0Z"/>
          <path class="st2" d="M37.7,74s0,0,0,0c-.3.4-.6.8-.9,1.2s-.5.9-.8,1.3c-.5-.8-1.1-1.7-1.8-2.6,0,.2-.2.3-.3.5,0,.2-.2.3-.2.5.4.5.8,1,1.1,1.5s.6,1,.8,1.6c0,0,0,0,0,0s0,0,0,0c0,0,0,0,.1,0,0,0,.2-.2.2-.3,0-.1,0-.2.1-.3.2-.4.4-.9.6-1.3s.5-.8.8-1.1c0-.3,0-.6.1-.9h0Z"/>
          <path class="st2" d="M41.8,82.7c-.7.3-1.1.6-1.1.7h.2c.3,0,.6,0,.9-.1.3,0,.6-.2.8-.3.6-.3,1.1-.7,1.4-1.3.2-.3.2-.6.2-.8s0-.3-.2-.5c-.2-.2-.7-.3-1.4-.3h-.3c-.6,0-1,0-1.1.3-.3.4-.5.7-.7,1.1-.2.4-.2.6-.2.7h0s0,0,.2-.2.2-.2.3-.2c.2-.1.4-.2.8-.2s.3,0,.5,0c.7,0,1,.1,1.1.2h0c-.2.3-.6.6-1.4.9Z"/>
          <path class="st2" d="M94.3,42.9c1.2-.6,2.5-1.2,4-1.7,1.5-.5,2.9-1.1,4.3-1.6l1.1-1.8c-.7.2-1.4.5-2.2.8-.8.3-1.5.6-2.3.8-.7.3-1.4.5-2.1.8-.6.2-1.2.4-1.6.6h0l-1.3,2.1ZM94.3,45.5c1.2-.6,2.5-1.2,4-1.7,1.5-.5,2.9-1.1,4.3-1.6l1.1-1.8c-.7.2-1.4.5-2.2.8-.8.3-1.5.6-2.3.8s-1.4.5-2.1.8c-.6.2-1.2.4-1.6.6h0l-1.3,2.1Z"/>
          <path class="st2" d="M97.3,69.9c.6-.3,1.2-.5,1.8-.8.7-.2,1.3-.5,2-.7l.5-.8c-.3.1-.7.2-1,.4-.4.1-.7.3-1.1.4-.3.1-.7.2-1,.4-.3.1-.5.2-.7.3h0l-.6,1Z"/>
          <path class="st2" d="M106.9,67c-.3.2-.6.5-1,.7-.4.2-.8.5-1.1.7s-.7.5-1,.7-.6.4-.7.5c-.2.1-.3.2-.3.2h.2c.6-.2,1.2-.3,1.7-.5s.9-.4,1.4-.6c.4-.2.8-.5,1.2-.8.4-.3.7-.7,1.1-1.2.1,0,.2.1.3.2,0,0,.2.1.2.2.2-.3.3-.5.3-.7,0-.2.1-.3.1-.4h0c0-.2,0-.3-.1-.3,0,0-.1-.2-.2-.2.2-.7.3-1.2.3-1.6s0-.2,0-.2c0-.4-.2-.7-.4-.9-.1,0-.3-.1-.4-.1s-.3,0-.4.1c-.3.1-.7.4-1,.8-.3.4-.5.7-.6,1,0,.1,0,.2,0,.3,0,.2,0,.3.1.5.1.2.3.4.5.6.2.2.5.3.8.5-.2.2-.4.4-.7.6ZM107.7,64.9c-.2,0-.3-.2-.5-.4,0,0,0-.1,0-.2s0,0,0,0c0,0,.1-.2.2-.2.1,0,.2-.1.3-.1h0c0,0,.2,0,.3,0,.1,0,.2.2.2.4,0,0,0,.1,0,.2,0,.2,0,.4,0,.6-.2,0-.4-.2-.5-.3Z"/>
          <path class="st2" d="M85.7,54.8c-1.2.6-1.8,1-1.9,1.1h.3c.5,0,1,0,1.5-.2.4,0,.9-.3,1.4-.5,1-.5,1.8-1.2,2.3-2.2.3-.5.4-1,.4-1.4s0-.6-.3-.8c-.3-.3-1.1-.5-2.4-.6h-.5c-1,0-1.6.2-1.9.5-.5.6-.9,1.2-1.1,1.8-.3.6-.4,1-.4,1.2h0c0,0,.2-.1.3-.3s.3-.3.4-.4c.3-.2.7-.3,1.3-.3s.5,0,.9,0c1.1.1,1.7.2,1.9.4h0c-.3.4-1.1.9-2.3,1.5Z"/>
          <path class="st2" d="M69.9,54.8s0,0,0,0c-.4.4-1,.6-1.8.8-.2,0-.5,0-.7,0-.5,0-1-.1-1.5-.4,0,0-.2,0-.2,0s0,0,0,0c-.6.3-1.1.8-1.4,1.3-.2.3-.3.6-.3.6s0,0,0,0c0,0,0,0,.2-.2.3-.3.5-.5.7-.6,0,0,.2-.1.3-.2,0,0,.1,0,.2,0s0,0,.2,0c.5.2.9.4,1.4.4s.4,0,.7,0c.7-.1,1.3-.4,1.8-.6l.8-1s0,0,0,0Z"/>
          <path class="st2" d="M93.5,89c.2-.1.4-.3.6-.4.2-.2.5-.3.7-.5.2-.2.5-.3.6-.4.2-.1.3-.2.5-.3.1,0,.2-.1.2-.1h-.1c-.4.1-.7.2-1,.3-.3.1-.6.2-.8.4-.3.1-.5.3-.7.5-.2.2-.4.4-.7.7,0,0-.1,0-.2-.1,0,0,0,0-.1-.1-.1.2-.2.3-.2.4,0,.1,0,.2,0,.3h0c0,0,0,.2,0,.2,0,0,0,0,.2.1-.1.4-.2.7-.2,1s0,0,0,.1c0,.3.1.4.2.5,0,0,.2,0,.2,0s.2,0,.3,0c.2,0,.4-.2.6-.5.2-.2.3-.5.4-.6,0,0,0-.1,0-.2,0-.1,0-.2,0-.3,0-.1-.2-.3-.3-.4-.1-.1-.3-.2-.5-.3,0-.1.2-.2.4-.4ZM93.1,90.4c.1,0,.2.1.3.2,0,0,0,0,0,.1s0,0,0,0c0,0,0,.1-.1.2,0,0-.1,0-.2,0h0c0,0-.1,0-.2,0,0,0-.1-.1-.1-.2,0,0,0,0,0-.1,0-.1,0-.2,0-.4.1,0,.2.1.3.2Z"/>
          <path class="st2" d="M74.3,33.1c-.6.5-1,1-1.3,1.7-.1.2-.2.5-.3.8,0,.3,0,.5,0,.8,0,.2.2.3.3.4s.3.2.4.2c.2,0,.3,0,.5,0,.2,0,.4-.1.5-.2l.4-.9c-.1,0-.2.1-.4.2-.2,0-.3.1-.5.1-.2,0-.3,0-.5,0-.1,0-.2-.2-.2-.4,0-.1,0-.3,0-.5,0-.2.2-.4.4-.6s.3-.4.6-.6c.2-.2.4-.4.7-.5.2-.2.5-.3.7-.4.2-.1.5-.2.7-.2.5-.1.8,0,1,0s.2.5.1.9c0,.1,0,.2,0,.2,0,0,0,0,0,0,0,0,0,0,.1,0,0,0,0,0,.1-.2,0,0,.1-.2.2-.3,0-.1,0-.3.1-.4,0-.1,0-.3,0-.4,0-.1,0-.3-.1-.4,0-.1-.2-.2-.3-.3s-.2-.1-.4-.1c-.1,0-.3,0-.5,0-.2,0-.3,0-.5.1-.7.2-1.4.6-1.9,1ZM75.6,36.7c-.2.1-.4.3-.6.4-.2.2-.5.3-.7.5s-.5.3-.6.4-.3.2-.5.3c-.1,0-.2.1-.2.1h.1c.4-.1.7-.2,1-.3s.6-.2.9-.4c.3-.1.5-.3.7-.5.2-.2.4-.4.7-.7,0,0,.1,0,.2.1,0,0,0,0,.1.1.1-.2.2-.3.2-.4,0-.1,0-.2,0-.3h0c0,0,0-.2,0-.2,0,0,0,0-.2-.1.1-.4.2-.7.2-1s0,0,0-.1c0-.3-.1-.4-.2-.5,0,0-.2,0-.2,0s-.2,0-.3,0c-.2,0-.4.2-.6.5-.2.2-.3.5-.4.6,0,0,0,.1,0,.2,0,.1,0,.2,0,.3,0,.1.2.3.3.4.1.1.3.2.5.3-.1.1-.2.2-.4.4ZM76.1,35.4c-.1,0-.2-.1-.3-.2,0,0,0,0,0-.1s0,0,0,0c0,0,0-.1.1-.2,0,0,.1,0,.2,0h0c0,0,.1,0,.2,0,0,0,.1.1.1.2,0,0,0,0,0,.1,0,.1,0,.2,0,.4-.1,0-.2-.1-.3-.2Z"/>
          <path class="st2" d="M51.6,79c.1-.2.2-.3.3-.5.1-.2.2-.3.2-.4,0,0,0,0,0,0,0,0,0,0,0,0s0,0-.1,0c-.4.1-.9.4-1.4.9s-.9.9-1.2,1.4c-.2.3-.3.5-.3.7,0,0,0,0,0,.1,0,.2.1.4.3.6.2.2.4.3.7.3.2,0,.3.1.3.2h0c0,0,0,.1-.2.2,0,0-.2,0-.5.2-.3.1-.7.3-1,.4-.3.2-.6.3-.8.4-.1,0-.2.1-.2.2s0,0,.1,0c.1,0,.2,0,.4,0s.4,0,.6,0c.4,0,.7-.1.9-.2.4-.2.6-.4.9-.8.2-.3.5-.6.7-1,.3-.4.4-.6.4-.8s0,0,0,0c0-.2-.1-.3-.3-.4-.2,0-.4-.2-.6-.3-.2,0-.4-.2-.5-.4.2-.2.4-.3.6-.4.2,0,.4-.1.6-.2,0,0,.1-.2.2-.3Z"/>
          <path class="st2" d="M67,76.6c0,0,0-.1,0-.1,0,0-.1,0-.2,0-.8.7-1.3.7-1.5,0-.2-.7-.1-1.7.2-2.9s.5-1.8.5-2l-.6.6h0c-1.1,3.4-1.5,5.4-1.2,6.1.4.7.8,1,1.3.9,1,0,1.5-.9,1.5-2.6Z"/>
          <path class="st2" d="M73,74.4c.6.2,1.2.5,1.6.9.4.4.4.9,0,1.3-.3.4-1,.8-2,1.2v.3c-.1,0,0,.4,0,.4,2.2-.4,3.7-1.1,4.4-2,.3-.5.5-1,.4-1.5s-.3-.9-.6-1.3c-.2-.3-.5-.5-1-.8s-.8-.4-1.1-.5l.6-1.3h-1l-1.5,3.3Z"/>
          <path class="st2" d="M93.6,75.4c.4.1.8.3,1,.6.3.3.3.6,0,.9-.2.3-.6.5-1.3.8v.2c0,0,0,.3,0,.3,1.5-.3,2.4-.7,2.9-1.3.2-.4.3-.7.3-1s-.2-.6-.4-.9c-.1-.2-.4-.4-.6-.5s-.5-.3-.7-.3l.4-.9h-.7l-.9,2.1Z"/>
          <path class="st2" d="M105.3,49.8c-.5-1.1-1-2.2-1.5-3.3-.2.5-.4,1-.6,1.4-.2.5-.4.9-.6,1.4h0c0,.1,0,.3.2.4.1.2.2.4.3.5.6,1.1,1,2.4,1.4,3.9.2.8.3,1.7.3,2.7s0,1.5-.2,2.3c0,0,0,0,0,.2,0,0,0,0,0,0s0,0,0,0c.1,0,.2-.2.3-.4s.2-.3.2-.5c.3-.6.5-1.3.7-2,.1-.5.2-1.2.2-1.9s0-.5,0-.8c-.1-1.6-.4-2.9-.9-4Z"/>
          <path class="st2" d="M91.1,72.4c.2-.3.5-1,1-2,.4-1,.9-2.2,1.3-3.5l-2.1.7-.7,2c-.4-.5-.8-1-1.2-1.5-.4-.5-.7-.7-1-.7h0c-.6,0-1,.4-1.4.9-.3.5-.5,1.1-.6,1.8,0,.3,0,.7,0,1s0,.7,0,1.1c.1.7.3,1.3.6,1.7.4.7.8,1.5,1.2,2.5.3.8.5,1.6.5,2.4s0,.5,0,.8c0,0,.2-.1.2-.3.2-.7.4-1.3.6-2,.2-.5.2-1,.2-1.6s0-.4,0-.7c-.2-.8-.6-1.6-1-2.5-.5-.8-.8-1.6-1.1-2.4.2-.2.4-.4.6-.4s.2,0,.3,0c.3.2.6.4,1,.8.3.4.6.7.9,1.1.3.4.6.6.8.7h0s0,0,.2-.1h0Z"/>
          <path class="st2" d="M44.2,92.8c.2-.3.5-.9.9-1.8.4-.9.8-1.9,1.2-3.1l-1.9.6-.6,1.8c-.3-.4-.7-.9-1-1.3-.3-.4-.6-.6-.9-.6h0c-.5,0-.9.3-1.2.8-.3.5-.5,1-.6,1.6,0,.3,0,.6,0,.9s0,.6,0,.9c0,.6.3,1.1.5,1.5.4.6.7,1.3,1.1,2.2.3.7.4,1.4.4,2.1s0,.5,0,.7c0,0,.1-.1.2-.2.1-.6.3-1.2.5-1.8.1-.4.2-.9.2-1.4s0-.4,0-.6c-.2-.7-.5-1.4-.9-2.2-.4-.7-.7-1.4-1-2.1.2-.2.3-.3.5-.3s.2,0,.3,0c.3.2.6.4.9.7.3.3.6.7.8,1,.3.3.5.5.7.6h0s0,0,.1,0h0Z"/>
          <path class="st2" d="M106.6,75c-.2,2-.8,3.6-1.9,5-1.1,1.4-2.1,2.4-3,3.1-.2.2-.5.4-.8.5-.3.2-.5.4-.7.6,0,0,0,.1,0,.2,0,0,0,0,0,0,0,0,0,0,0,0h0c1.5,0,2.7,0,3.5,0,.3,0,.6,0,.9,0,.7,0,1.5,0,2.4,0,.3-.3.7-.5,1-.8.3-.3.7-.6,1-.9-.8,0-1.6,0-2.2,0s-.5,0-.8,0c-.8,0-1.7,0-2.8.2.4-.3,1-.9,1.7-1.8.7-.8,1.4-1.7,2.1-2.7.6-1,1.2-1.9,1.5-2.7.2-.5.3-.9.3-1.3s0-.5-.2-.7c-.7.5-1.4.8-2.2,1.2Z"/>
          <polygon class="st2" points="87.2 89.9 83.7 86.4 87.2 83 90.6 86.4 87.2 89.9"/>
          <polygon class="st2" points="49.7 74.5 47.6 72.4 49.7 70.3 51.8 72.4 49.7 74.5"/>
          <polygon class="st2" points="52.7 74.5 50.7 72.4 52.7 70.3 54.8 72.4 52.7 74.5"/>
        </g>
        <g>
          <path class="st2" d="M34.8,29c-.1.3-.2.5-.2.8s0,.4.2.6.3.2.5.2.4,0,.5-.2c.1-.1.2-.3.4-.5.1,0,.3.1.3.1,0,0,.1,0,.2,0,.3,0,.5-.1.6-.4s.2-.6.2-.9,0-.2,0-.4c0-.1,0-.3,0-.4h-.2c0,.4,0,.8-.1,1.1s-.3.5-.5.5-.2-.1-.2-.3c0-.3,0-.6,0-.9h-.1c0,.2,0,.5-.1,1-.1.5-.3.7-.5.7s-.3,0-.3-.2c0-.1,0-.3,0-.5v-.6h-.1Z"/>
          <path class="st2" d="M4,9.9c1.3-.7,2.4-1.4,3.2-2.1.8-.7,1.4-1.7,1.8-3s.2-1.4,0-2.1c-.3-.6-.7-1-1.4-1.2s-.9,0-1.3.1c-.4.2-.6.6-.8,1-.2.6-.1,1.1.2,1.5.3.3.8.7,1.5,1.1-.3,1-.7,1.7-1.2,2.1-.5.5-1.3,1-2.5,1.6l.4.8Z"/>
          <path class="st2" d="M18.9,33c.2.5.6.8,1.2,1s1.3,0,2-.4c.7-.5,1.1-1.1,1.4-1.9s.2-1.5,0-2.2c-.3-.7-.6-1.1-1.2-1.2s-1.3,0-1.9.5c-.6.6-1.1,1.4-1.4,2.4s-.2,1.3,0,1.8ZM22.5,30.3c.3.5.3,1.2,0,1.9s-.3.5-.8.6c-.4.2-.9.2-1.4,0s-.7-.4-.9-.9c-.2-.5-.2-.9,0-1.3s.4-.7.7-1c.4-.3.7-.4,1-.3.6.1,1,.4,1.3.9Z"/>
          <path class="st2" d="M13.9,3.7c-.2.5-.3,1-.3,1.5s.1.8.3,1.1.5.5.9.5.7-.1.9-.3c.2-.2.4-.5.7-1,.3.1.5.2.6.2.1,0,.3,0,.4,0,.5,0,.9-.2,1.2-.7s.3-1.1.3-1.7,0-.5,0-.7c0-.2,0-.5-.2-.7h-.3c0,.7,0,1.5-.3,2.1s-.5,1-1,1-.3-.2-.4-.6c0-.6-.1-1.1-.2-1.7h-.3c0,.3-.1.9-.3,1.9-.2.9-.5,1.3-.9,1.3s-.5-.1-.6-.4c0-.2-.1-.6-.1-.9v-1.1h-.2Z"/>
          <path class="st2" d="M34.8,41.1c.1,0,.2,0,.3,0,.4,0,.8-.2,1.2-.5.2-.2.4-.5.6-.7l.6.5v-.8c0,0,0,0,0,0,0,0-.2,0-.2-.1.1-.2.2-.3.3-.5s0-.4,0-.6c0-.5-.2-.8-.6-.8s-.5.2-.8.5c-.2.3-.3.7-.3,1,0,.2.1.4.2.5s.2.2.3.3c-.2.2-.5.4-.7.7-.3.2-.7.4-1.2.6,0,0,.2,0,.3,0ZM36.4,39.1c-.1-.1-.2-.3-.2-.5s0-.2,0-.3c0-.1.1-.2.3-.4,0,0,.2,0,.3,0,.2,0,.3,0,.4.2s.1.2.1.4,0,.3,0,.4c0,0,0,.2-.1.3,0,.1-.1.2-.2.2-.1,0-.3,0-.4-.1Z"/>
          <path class="st2" d="M17.9,51c0-.1.2-.2.3-.2.3,0,.5.2.5.5s0,.4-.2.6-.2.4-.3.6c.6-.1,1-.3,1.3-.5.3-.2.6-.5,1.1-.9.1,0,.3.2.4.3s.3.2.4.3v-.5c0,0,0-.2-.2-.3-.2-.1-.2-.2-.3-.2,0-.2.2-.4.3-.7.1-.2.2-.4.2-.6s0-.4-.2-.5c-.1-.2-.3-.2-.5-.2-.3,0-.6.1-.8.4-.3.3-.4.6-.4.9s0,.4.2.5c.1.2.3.3.5.5-.1.1-.3.3-.5.5-.2.1-.4.3-.7.4,0,0,0-.1,0-.4,0-.2,0-.4,0-.5,0-.3,0-.5-.1-.7,0-.2-.3-.3-.6-.3s-.4.1-.5.4c-.1.2-.2.5-.2.9v.3c.1-.3.2-.5.3-.6ZM20.5,49.2c.3,0,.5.1.5.4s0,.2,0,.3l-.3.4c-.2,0-.3,0-.4-.2-.1-.1-.2-.2-.2-.4s0-.2,0-.3c.1-.2.2-.3.4-.3Z"/>
          <path class="st2" d="M32.5,10.3c.4-.2.5-.5.5-.8l-2.3,1.3c-.2,0-.3.2-.4.3s-.2.3-.2.5l2.4-1.3Z"/>
          <path class="st2" d="M33.4,24.1c.1,0,.2,0,.3,0,.4,0,.8-.2,1.2-.5.2-.2.4-.5.6-.7l.6.5v-.8c0,0,0,0,0,0,0,0-.2,0-.2-.1.1-.2.2-.3.3-.5,0-.2,0-.4,0-.6,0-.5-.2-.8-.6-.8s-.5.2-.8.5c-.2.3-.3.7-.3,1,0,.2.1.4.2.5.1,0,.2.2.3.3-.2.2-.5.4-.7.7-.3.2-.7.4-1.2.6,0,0,.2,0,.3,0ZM35,22.1c-.1-.1-.2-.3-.2-.5s0-.2,0-.3c0-.1.1-.2.3-.4,0,0,.2,0,.3,0,.2,0,.3,0,.4.2s.1.2.1.4,0,.3,0,.4c0,0,0,.2-.1.3,0,.1-.1.2-.2.2-.1,0-.3,0-.4-.1Z"/>
          <path class="st2" d="M8.4,46C.8,49.1-1.6,56.6-1.2,58.1s.7,1.4,1.5,1.7,1.1.2,1.6,0c.5-.2.9-.6,1.1-1.2.3-.8.3-1.4,0-1.8-.3-.5-.9-1-1.7-1.5.9-2.4,7.2-9.2,7.2-9.2Z"/>
          <path class="st2" d="M17.3,20.9v.4c.8.2,1.1.7,1.1,1.4,0,.9-.3,1.4-.8,1.7v.4c.4,0,.8-.3,1.2-1,.4-.7.6-1.4.6-2s-.1-1-.4-1.3c-.3-.4-.5-.6-.8-.6l-1.1,1.1ZM20.4,20.9v.4c.8.2,1.1.7,1.1,1.4,0,.9-.3,1.4-.8,1.7v.4c.4,0,.8-.3,1.2-1s.6-1.4.6-2-.1-1-.4-1.3-.5-.6-.8-.6l-1.1,1.1Z"/>
          <path class="st2" d="M3.2,21.8c-1.7.3-3.5.7-5.6,1l-1.7,3.4c.9-.2,1.8-.3,2.8-.5.9-.2,1.8-.3,2.8-.5l1.7-3.4Z"/>
          <path class="st2" d="M1.6,14.5c0,.2,0,.7,0,1.3,0,.5.1,1,.3,1.4.2.5.5.8,1,.8.5,0,1,0,1.6,0,.6-.1,1.2-.3,1.7-.5.6-.2,1-.4,1.3-.6,2.6-1.3,4.6-2.9,6-4.8.2-.3.5-.7.7-1,.2-.4.3-.8.3-1.3-.8.7-1.7,1.4-2.6,2.1-.9.7-1.9,1.3-2.9,1.8-.8.4-1.8.8-2.9,1.1s-2.3.4-3.4.3c0,0,0,0,0-.1l-1.1-.5Z"/>
          <path class="st2" d="M35-5.8c-.3-.2-.6-.2-.9-.1-.6.3-1.1.7-1.4,1.2s-.6,1.1-.8,1.6c-.4.8-.8,1.7-1.1,2.5s-.8,1.6-1.4,2.3c-.4.1-.7,0-.9-.2-.2-.2-.4-.4-.5-.7-.3-.5-.5-1.1-.6-1.8-.2-.8-.3-1.4-.6-1.9-.2-.5-.5-.7-.9-.7-.4,0-.9.6-1.5,1.8-.9,1.5-1.2,3.4-1,5.9.1-.4.2-.9.4-1.3.1-.4.3-.8.5-1.2.6-1.3,1.2-1.8,1.6-1.4.4.4.8,1,1.1,2,.2.6.4,1.2.6,1.7s.5,1,1,1.2c.5.3,1,.2,1.3-.2.5-.7.8-1.5,1.1-2.3.3-.8.6-1.7.9-2.5.4-1.1.8-1.8,1.1-2.1.3-.3.6-.4.8-.3s.5.2.8.5c.3.3.5-.3.8-1.7.3-1.4.2-2.2,0-2.4Z"/>
          <path class="st2" d="M6.3,35.8c0-.4-.2-.4-.5-.2,0,0-.2.2-.3.3-.4.6-.8.8-1.1.8-.3-.1-.5-.3-.6-.5h0c0-.1,0-.3-.1-.4,0-.3,0-.7,0-1,.1-.6.3-1.3.5-2.1.2-.8.5-1.5.9-2.1.1-.2.2-.4.2-.5,0-.1,0-.2,0-.1,0,0-.2,0-.2.2-.2.2-.3.3-.3.4-.5.6-.9,1.5-1.3,2.5-.4,1-.6,1.9-.8,2.8,0,.6,0,1.3,0,2.2,0,.9.6,1.3,1.5,1.3s1.4-.6,1.8-2c.2-.7.3-1.2.2-1.5Z"/>
          <path class="st2" d="M25.3,45c0-.2-.1-.2-.2,0,0,0,0,0-.1.1-.2.3-.4.4-.5.4-.1,0-.3-.1-.3-.2h0c0,0,0-.1,0-.2,0-.2,0-.3,0-.5,0-.3.1-.7.3-1.1.1-.4.3-.8.4-1,0-.1,0-.2.1-.2,0,0,0,0,0,0,0,0,0,0-.1,0,0,.1-.1.2-.2.2-.2.3-.5.7-.7,1.2-.2.5-.3,1-.4,1.4,0,.3,0,.6,0,1.1,0,.4.3.6.7.6s.7-.3.9-1c.1-.4.1-.6.1-.7Z"/>
          <path class="st2" d="M36.7,48.8c0-.2-.1-.2-.2,0,0,0,0,0-.1.1-.2.3-.4.4-.5.4-.1,0-.3-.1-.3-.2h0c0,0,0-.1,0-.2,0-.2,0-.3,0-.5,0-.3.1-.7.3-1.1.1-.4.3-.8.4-1,0-.1,0-.2.1-.2,0,0,0,0,0,0,0,0,0,0-.1,0,0,.1-.1.2-.2.2-.2.3-.5.7-.7,1.2-.2.5-.3,1-.4,1.4,0,.3,0,.6,0,1.1,0,.4.3.6.7.6s.7-.3.9-1c.1-.4.1-.6.1-.7Z"/>
          <path class="st2" d="M36.7,7.4c0-.2-.1-.2-.2,0,0,0,0,0-.1.1-.2.3-.4.4-.5.4-.1,0-.3-.1-.3-.2h0c0,0,0-.1,0-.2,0-.2,0-.3,0-.5,0-.3.1-.7.3-1.1.1-.4.3-.8.4-1,0-.1,0-.2.1-.2,0,0,0,0,0,0,0,0,0,0-.1,0,0,.1-.1.2-.2.2-.2.3-.5.7-.7,1.2-.2.5-.3,1-.4,1.4,0,.3,0,.6,0,1.1,0,.4.3.6.7.6s.7-.3.9-1c.1-.4.1-.6.1-.7Z"/>
          <path class="st2" d="M47.4,38.4c0-.2-.1-.2-.2,0,0,0,0,0-.1.1-.2.3-.4.4-.5.4-.1,0-.3-.1-.3-.2h0c0,0,0-.1,0-.2,0-.2,0-.3,0-.5,0-.3.1-.7.3-1.1.1-.4.3-.8.4-1,0-.1,0-.2.1-.2,0,0,0,0,0,0,0,0,0,0-.1,0,0,.1-.1.2-.2.2-.2.3-.5.7-.7,1.2-.2.5-.3,1-.4,1.4,0,.3,0,.6,0,1.1,0,.4.3.6.7.6s.7-.3.9-1c.1-.4.1-.6.1-.7Z"/>
          <path class="st2" d="M14.8,28.1s0,0,0,0c-.4.6-.9,1.2-1.3,1.7s-.8,1.2-1.1,1.9c-.7-1.2-1.5-2.4-2.5-3.7-.1.2-.3.5-.4.7-.1.2-.2.5-.3.7.6.7,1.1,1.4,1.6,2.1s.9,1.5,1.2,2.3c0,0,0,0,0,0s0,0,0,0c0,0,.1,0,.1,0,.1-.1.2-.3.3-.5,0-.2.1-.3.2-.5.3-.6.6-1.2.9-1.8s.7-1.1,1.1-1.6c0-.4,0-.9.2-1.3h0Z"/>
          <path class="st2" d="M17.7,12.3c1.2-.6,2.5-1.2,4-1.7,1.5-.5,2.9-1.1,4.3-1.6l1.1-1.8c-.7.2-1.4.5-2.2.8-.8.3-1.5.6-2.3.8-.7.3-1.4.5-2.1.8-.6.2-1.2.4-1.6.6h0l-1.3,2.1ZM17.7,14.9c1.2-.6,2.5-1.2,4-1.7,1.5-.5,2.9-1.1,4.3-1.6l1.1-1.8c-.7.2-1.4.5-2.2.8-.8.3-1.5.6-2.3.8s-1.4.5-2.1.8c-.6.2-1.2.4-1.6.6h0l-1.3,2.1Z"/>
          <path class="st2" d="M20.7,39.4c.6-.3,1.2-.5,1.8-.8.7-.2,1.3-.5,2-.7l.5-.8c-.3.1-.7.2-1,.4-.4.1-.7.3-1.1.4-.3.1-.7.2-1,.4-.3.1-.5.2-.7.3h0l-.6,1Z"/>
          <path class="st2" d="M30.4,36.4c-.3.2-.6.5-1,.7-.4.2-.8.5-1.1.7s-.7.5-1,.7-.6.4-.7.5c-.2.1-.3.2-.3.2h.2c.6-.2,1.2-.3,1.7-.5s.9-.4,1.4-.6c.4-.2.8-.5,1.2-.8.4-.3.7-.7,1.1-1.2.1,0,.2.1.3.2,0,0,.2.1.2.2.2-.3.3-.5.3-.7,0-.2.1-.3.1-.4h0c0-.2,0-.3-.1-.3,0,0-.1-.2-.2-.2.2-.7.3-1.2.3-1.6s0-.2,0-.2c0-.4-.2-.7-.4-.9-.1,0-.3-.1-.4-.1s-.3,0-.4.1c-.3.1-.7.4-1,.8-.3.4-.5.7-.6,1,0,.1,0,.2,0,.3,0,.2,0,.3.1.5.1.2.3.4.5.6.2.2.5.3.8.5-.2.2-.4.4-.7.6ZM31.1,34.3c-.2,0-.3-.2-.5-.4,0,0,0-.1,0-.2s0,0,0,0c0,0,.1-.2.2-.2.1,0,.2-.1.3-.1h0c0,0,.2,0,.3,0,.1,0,.2.2.2.4,0,0,0,.1,0,.2,0,.2,0,.4,0,.6-.2,0-.4-.2-.5-.3Z"/>
          <path class="st2" d="M9.2,24.2c-1.2.6-1.8,1-1.9,1.1h.3c.5,0,1,0,1.5-.2.4,0,.9-.3,1.4-.5,1-.5,1.8-1.2,2.3-2.2.3-.5.4-1,.4-1.4s0-.6-.3-.8c-.3-.3-1.1-.5-2.4-.6h-.5c-1,0-1.6.2-1.9.5-.5.6-.9,1.2-1.1,1.8-.3.6-.4,1-.4,1.2h0c0,0,.2-.1.3-.3s.3-.3.4-.4c.3-.2.7-.3,1.3-.3s.5,0,.9,0c1.1.1,1.7.2,1.9.4h0c-.3.4-1.1.9-2.3,1.5Z"/>
          <path class="st2" d="M17,58.5c.2-.1.4-.3.6-.4.2-.2.5-.3.7-.5.2-.2.5-.3.6-.4.2-.1.3-.2.5-.3.1,0,.2-.1.2-.1h-.1c-.4.1-.7.2-1,.3-.3.1-.6.2-.8.4-.3.1-.5.3-.7.5-.2.2-.4.4-.7.7,0,0-.1,0-.2-.1,0,0,0,0-.1-.1-.1.2-.2.3-.2.4,0,.1,0,.2,0,.3h0c0,0,0,.2,0,.2,0,0,0,0,.2.1-.1.4-.2.7-.2,1s0,0,0,.1c0,.3.1.4.2.5,0,0,.2,0,.2,0s.2,0,.3,0c.2,0,.4-.2.6-.5.2-.2.3-.5.4-.6,0,0,0-.1,0-.2,0-.1,0-.2,0-.3,0-.1-.2-.3-.3-.4-.1-.1-.3-.2-.5-.3,0-.1.2-.2.4-.4ZM16.5,59.8c.1,0,.2.1.3.2,0,0,0,0,0,.1s0,0,0,0c0,0,0,.1-.1.2,0,0-.1,0-.2,0h0c0,0-.1,0-.2,0,0,0-.1-.1-.1-.2,0,0,0,0,0-.1,0-.1,0-.2,0-.4.1,0,.2.1.3.2Z"/>
          <path class="st2" d="M-2.2,2.6c-.6.5-1,1-1.3,1.7-.1.2-.2.5-.3.8,0,.3,0,.5,0,.8,0,.2.2.3.3.4s.3.2.4.2c.2,0,.3,0,.5,0,.2,0,.4-.1.5-.2l.4-.9c-.1,0-.2.1-.4.2-.2,0-.3.1-.5.1-.2,0-.3,0-.5,0-.1,0-.2-.2-.2-.4,0-.1,0-.3,0-.5,0-.2.2-.4.4-.6s.3-.4.6-.6c.2-.2.4-.4.7-.5.2-.2.5-.3.7-.4.2-.1.5-.2.7-.2.5-.1.8,0,1,0s.2.5.1.9c0,.1,0,.2,0,.2,0,0,0,0,0,0,0,0,0,0,.1,0,0,0,0,0,.1-.2,0,0,.1-.2.2-.3,0-.1,0-.3.1-.4,0-.1,0-.3,0-.4,0-.1,0-.3-.1-.4,0-.1-.2-.2-.3-.3s-.2-.1-.4-.1c-.1,0-.3,0-.5,0-.2,0-.3,0-.5.1-.7.2-1.4.6-1.9,1ZM-.9,6.2c-.2.1-.4.3-.6.4-.2.2-.5.3-.7.5s-.5.3-.6.4-.3.2-.5.3c-.1,0-.2.1-.2.1h.1c.4-.1.7-.2,1-.3s.6-.2.9-.4c.3-.1.5-.3.7-.5.2-.2.4-.4.7-.7,0,0,.1,0,.2.1,0,0,0,0,.1.1.1-.2.2-.3.2-.4,0-.1,0-.2,0-.3H.5c0,0,0-.2,0-.2,0,0,0,0-.2-.1.1-.4.2-.7.2-1s0,0,0-.1c0-.3-.1-.4-.2-.5,0,0-.2,0-.2,0s-.2,0-.3,0c-.2,0-.4.2-.6.5-.2.2-.3.5-.4.6,0,0,0,.1,0,.2,0,.1,0,.2,0,.3,0,.1.2.3.3.4.1.1.3.2.5.3-.1.1-.2.2-.4.4ZM-.4,4.8c-.1,0-.2-.1-.3-.2,0,0,0,0,0-.1s0,0,0,0c0,0,0-.1.1-.2,0,0,.1,0,.2,0h0c0,0,.1,0,.2,0,0,0,.1.1.1.2,0,0,0,0,0,.1,0,.1,0,.2,0,.4-.1,0-.2-.1-.3-.2Z"/>
          <path class="st2" d="M-3.5,43.8c.6.2,1.2.5,1.6.9.4.4.4.9,0,1.3-.3.4-1,.8-2,1.2v.3c-.1,0,0,.4,0,.4,2.2-.4,3.7-1.1,4.4-2,.3-.5.5-1,.4-1.5s-.3-.9-.6-1.3c-.2-.3-.5-.5-1-.8s-.8-.4-1.1-.5l.6-1.3h-1l-1.5,3.3Z"/>
          <path class="st2" d="M17.1,44.8c.4.1.8.3,1,.6.3.3.3.6,0,.9-.2.3-.6.5-1.3.8v.2c0,0,0,.3,0,.3,1.5-.3,2.4-.7,2.9-1.3.2-.4.3-.7.3-1s-.2-.6-.4-.9c-.1-.2-.4-.4-.6-.5s-.5-.3-.7-.3l.4-.9h-.7l-.9,2.1Z"/>
          <path class="st2" d="M28.7,19.2c-.5-1.1-1-2.2-1.5-3.3-.2.5-.4,1-.6,1.4-.2.5-.4.9-.6,1.4h0c0,.1,0,.3.2.4.1.2.2.4.3.5.6,1.1,1,2.4,1.4,3.9.2.8.3,1.7.3,2.7s0,1.5-.2,2.3c0,0,0,0,0,.2,0,0,0,0,0,0s0,0,0,0c.1,0,.2-.2.3-.4s.2-.3.2-.5c.3-.6.5-1.3.7-2,.1-.5.2-1.2.2-1.9s0-.5,0-.8c-.1-1.6-.4-2.9-.9-4Z"/>
          <path class="st2" d="M14.6,41.9c.2-.3.5-1,1-2,.4-1,.9-2.2,1.3-3.5l-2.1.7-.7,2c-.4-.5-.8-1-1.2-1.5-.4-.5-.7-.7-1-.7h0c-.6,0-1,.4-1.4.9-.3.5-.5,1.1-.6,1.8,0,.3,0,.7,0,1s0,.7,0,1.1c.1.7.3,1.3.6,1.7.4.7.8,1.5,1.2,2.5.3.8.5,1.6.5,2.4s0,.5,0,.8c0,0,.2-.1.2-.3.2-.7.4-1.3.6-2,.2-.5.2-1,.2-1.6s0-.4,0-.7c-.2-.8-.6-1.6-1-2.5-.5-.8-.8-1.6-1.1-2.4.2-.2.4-.4.6-.4s.2,0,.3,0c.3.2.6.4,1,.8.3.4.6.7.9,1.1.3.4.6.6.8.7h0s0,0,.2-.1h0Z"/>
          <path class="st2" d="M30.1,44.4c-.2,2-.8,3.6-1.9,5-1.1,1.4-2.1,2.4-3,3.1-.2.2-.5.4-.8.5-.3.2-.5.4-.7.6,0,0,0,.1,0,.2,0,0,0,0,0,0,0,0,0,0,0,0h0c1.5,0,2.7,0,3.5,0,.3,0,.6,0,.9,0,.7,0,1.5,0,2.4,0,.3-.3.7-.5,1-.8.3-.3.7-.6,1-.9-.8,0-1.6,0-2.2,0s-.5,0-.8,0c-.8,0-1.7,0-2.8.2.4-.3,1-.9,1.7-1.8.7-.8,1.4-1.7,2.1-2.7.6-1,1.2-1.9,1.5-2.7.2-.5.3-.9.3-1.3s0-.5-.2-.7c-.7.5-1.4.8-2.2,1.2Z"/>
          <polygon class="st2" points="10.6 59.3 7.2 55.9 10.6 52.4 14.1 55.9 10.6 59.3"/>
        </g>
        <path class="st2" d="M120.7,1c.2-.3.5-.9.9-1.8.4-.9.8-1.9,1.2-3.1l-1.9.6-.6,1.8c-.3-.4-.7-.9-1-1.3-.3-.4-.6-.6-.9-.6h0c-.5,0-.9.3-1.2.8-.3.5-.5,1-.6,1.6,0,.3,0,.6,0,.9s0,.6,0,.9c0,.6.3,1.1.5,1.5.4.6.7,1.3,1.1,2.2.3.7.4,1.4.4,2.1s0,.5,0,.7c0,0,.1-.1.2-.2.1-.6.3-1.2.5-1.8.1-.4.2-.9.2-1.4s0-.4,0-.6c-.2-.7-.5-1.4-.9-2.2-.4-.7-.7-1.4-1-2.1.2-.2.3-.3.5-.3s.2,0,.3,0c.3.2.6.4.9.7.3.3.6.7.8,1,.3.3.5.5.7.6h0s0,0,.1,0h0Z"/>
        <g>
          <path class="st2" d="M111.3-1.6c-.1.3-.2.5-.2.8s0,.4.2.6.3.2.5.2.4,0,.5-.2c.1-.1.2-.3.4-.5.1,0,.3.1.3.1,0,0,.1,0,.2,0,.3,0,.5-.1.6-.4s.2-.6.2-.9,0-.2,0-.4c0-.1,0-.3,0-.4h-.2c0,.4,0,.8-.1,1.1s-.3.5-.5.5-.2-.1-.2-.3c0-.3,0-.6,0-.9h-.1c0,.2,0,.5-.1,1-.1.5-.3.7-.5.7s-.3,0-.3-.2c0-.1,0-.3,0-.5v-.6h-.1Z"/>
          <path class="st2" d="M95.4,2.5c.2.5.6.8,1.2,1s1.3,0,2-.4c.7-.5,1.1-1.1,1.4-1.9s.2-1.5,0-2.2c-.3-.7-.6-1.1-1.2-1.2s-1.3,0-1.9.5c-.6.6-1.1,1.4-1.4,2.4s-.2,1.3,0,1.8ZM99.1-.3c.3.5.3,1.2,0,1.9s-.3.5-.8.6c-.4.2-.9.2-1.4,0s-.7-.4-.9-.9c-.2-.5-.2-.9,0-1.3s.4-.7.7-1c.4-.3.7-.4,1-.3.6.1,1,.4,1.3.9Z"/>
          <path class="st2" d="M41.8,12.5c-.1.3-.2.5-.2.8s0,.4.2.6.3.2.5.2.4,0,.5-.2c.1-.1.2-.3.4-.5.1,0,.3.1.3.1,0,0,.1,0,.2,0,.3,0,.5-.1.6-.4s.2-.6.2-.9,0-.2,0-.4c0-.1,0-.3,0-.4h-.2c0,.4,0,.8-.1,1.1s-.3.5-.5.5-.2-.1-.2-.3c0-.3,0-.6,0-.9h-.1c0,.2,0,.5-.1,1-.1.5-.3.7-.5.7s-.3,0-.3-.2c0-.1,0-.3,0-.5v-.6h-.1Z"/>
          <path class="st2" d="M111.3,10.5c.1,0,.2,0,.3,0,.4,0,.8-.2,1.2-.5.2-.2.4-.5.6-.7l.6.5v-.8c0,0,0,0,0,0,0,0-.2,0-.2-.1.1-.2.2-.3.3-.5s0-.4,0-.6c0-.5-.2-.8-.6-.8s-.5.2-.8.5c-.2.3-.3.7-.3,1,0,.2.1.4.2.5s.2.2.3.3c-.2.2-.5.4-.7.7-.3.2-.7.4-1.2.6,0,0,.2,0,.3,0ZM112.9,8.5c-.1-.1-.2-.3-.2-.5s0-.2,0-.3c0-.1.1-.2.3-.4,0,0,.2,0,.3,0,.2,0,.3,0,.4.2s.1.2.1.4,0,.3,0,.4c0,0,0,.2-.1.3,0,.1-.1.2-.2.2-.1,0-.3,0-.4-.1Z"/>
          <path class="st2" d="M94.4,20.4c0-.1.2-.2.3-.2.3,0,.5.2.5.5s0,.4-.2.6-.2.4-.3.6c.6-.1,1-.3,1.3-.5.3-.2.6-.5,1.1-.9.1,0,.3.2.4.3s.3.2.4.3v-.5c0,0,0-.2-.2-.3-.2-.1-.2-.2-.3-.2,0-.2.2-.4.3-.7.1-.2.2-.4.2-.6s0-.4-.2-.5c-.1-.2-.3-.2-.5-.2-.3,0-.6.1-.8.4-.3.3-.4.6-.4.9s0,.4.2.5c.1.2.3.3.5.5-.1.1-.3.3-.5.5-.2.1-.4.3-.7.4,0,0,0-.1,0-.4,0-.2,0-.4,0-.5,0-.3,0-.5-.1-.7,0-.2-.3-.3-.6-.3s-.4.1-.5.4c-.1.2-.2.5-.2.9v.3c.1-.3.2-.5.3-.6ZM97,18.6c.3,0,.5.1.5.4s0,.2,0,.3l-.3.4c-.2,0-.3,0-.4-.2-.1-.1-.2-.2-.2-.4s0-.2,0-.3c.1-.2.2-.3.4-.3Z"/>
          <path class="st2" d="M55.4,26.5c0,.2-.2.5-.3.8l4.1-2.4c.2-.1.3-.2.5-.4.1-.2.2-.3.2-.5v-.3s-3.9,2.3-3.9,2.3c-.3.1-.5.3-.6.5ZM59,22.8c.4-.2.6-.4.7-.5,0-.1.1-.4.2-.8l-3.9,2.3c-.3.2-.5.4-.6.5s-.2.4-.2.8l3.9-2.3Z"/>
          <path class="st2" d="M64.6,23.1c0,.5.1,1,.4,1.4.3.4.6.6,1.1.6s.8-.2,1.1-.5c.3-.3.6-.8.8-1.3.4.2.7.3,1,.3.6,0,1-.2,1.3-.7.3-.5.4-1.1.4-1.9s-.2-1.6-.5-2.4h-.3v.6c0,.7,0,1.5-.2,2.3-.1.8-.4,1.2-.8,1.2s-.5-.3-.7-.9c-.2-.6-.4-1.2-.6-1.8l-.3.2c0,.8,0,1.6-.2,2.6-.1,1-.5,1.5-.9,1.5s-.5-.2-.7-.7-.3-1.2-.4-2.1l-.3.3c-.1.4-.2.9-.2,1.5ZM65.3,27.8c-.1.2-.2.6-.4,1.1l4.9-2.6c.3-.2.6-.4.8-.7.2-.3.3-.7.4-1.1l-5.1,2.9c-.3.1-.5.3-.6.5Z"/>
          <path class="st2" d="M85,15.4c-7.7,3.2-10.1,10.6-9.6,12.1s.7,1.4,1.5,1.7,1.1.2,1.6,0c.5-.2.9-.6,1.1-1.2.3-.8.3-1.4,0-1.8-.3-.5-.9-1-1.7-1.5.9-2.4,7.2-9.2,7.2-9.2Z"/>
          <path class="st2" d="M60.2,11.3c-1.4,1.2-2.9,2.5-4.6,4l.3,4.1c.8-.7,1.5-1.3,2.3-2,.8-.7,1.5-1.3,2.3-2l-.3-4.1Z"/>
          <path class="st2" d="M44.6-1.7c-.3.2-.6.4-.8.7-.4.6-.7,1.2-1.1,1.7-.4.6-.9,1-1.4,1.3-.4.2-.7.5-1,.8s-.6.7-.7,1.1c0,.2-.2.6-.2,1,0,.5,0,.9,0,1.3,0,.4.3.7.7.9.4.2.9.3,1.4.3.5,0,1,0,1.6,0,.5,0,.9-.2,1.2-.2,2.4-.6,4.3-1.5,5.9-2.9.3-.2.5-.5.8-.7.2-.3.4-.6.5-1-.8.5-1.7.9-2.5,1.3-.9.4-1.8.7-2.8.9-.8.2-1.6.3-2.7.4-1,0-2,0-2.9-.4,0,0,0-.1.2-.2,1-.5,1.9-1.5,2.5-2.7.1-.2.3-.4.4-.6.2-.2.4-.3.7-.4.3,0,.5.2.6.4s.2.5.2.7c0,.1,0,.1.2,0,.1,0,.2-.1.2-.2.2-.4.2-.9.2-1.3,0-.5,0-.9-.2-1.3-.2-.6-.5-.8-.9-.6Z"/>
          <path class="st2" d="M59.2,2.7s0,0,0,0c-.2.2-.5.3-.9.5s-.7.3-.9.3v.3c-.1,0,1.7.5,1.7.5.2-.2.4-.5.6-.9.2-.3.3-.6.4-.9.2-.5.3-1.1.3-1.7,0-1.1-.3-2-1-2.7l-1.2,2c.4.5.6,1,.8,1.4h0c0,.2.1.4.2.7,0,.2,0,.4,0,.4,0,0,0,0,0,0Z"/>
          <path class="st2" d="M75.2-.1c-.2-.2-.5-.3-.8-.2-.6.1-1,.4-1.4.8s-.7.8-.9,1.2c-.5.6-.9,1.3-1.4,1.9s-1,1.2-1.6,1.7c-.3,0-.6,0-.8-.3-.2-.2-.3-.4-.4-.7-.1-.4-.2-1-.2-1.6,0-.7,0-1.2-.2-1.7-.1-.4-.3-.7-.6-.7-.3,0-.8.4-1.6,1.2-1,1.1-1.6,2.7-1.8,4.7.2-.3.3-.7.5-1,.2-.3.4-.7.6-1,.8-1,1.3-1.3,1.6-.9.3.4.5,1,.6,1.9,0,.5.1,1,.2,1.5s.3.9.6,1.1c.4.3.8.4,1.1,0,.5-.5.9-1.1,1.3-1.7.4-.7.7-1.3,1.1-1.9.5-.9,1-1.4,1.2-1.6.3-.2.5-.3.7-.2s.4.3.6.6c.2.3.5-.1.9-1.3.4-1.1.6-1.8.3-2Z"/>
          <path class="st2" d="M82.9,5.2c0-.4-.2-.4-.5-.2,0,0-.2.2-.3.3-.4.6-.8.8-1.1.8-.3-.1-.5-.3-.6-.5h0c0-.1,0-.3-.1-.4,0-.3,0-.7,0-1,.1-.6.3-1.3.5-2.1.2-.8.5-1.5.9-2.1.1-.2.2-.4.2-.5,0-.1,0-.2,0-.1,0,0-.2,0-.2.2-.2.2-.3.3-.3.4-.5.6-.9,1.5-1.3,2.5-.4,1-.6,1.9-.8,2.8,0,.6,0,1.3,0,2.2,0,.9.6,1.3,1.5,1.3s1.4-.6,1.8-2c.2-.7.3-1.2.2-1.5Z"/>
          <path class="st2" d="M101.9,14.4c0-.2-.1-.2-.2,0,0,0,0,0-.1.1-.2.3-.4.4-.5.4-.1,0-.3-.1-.3-.2h0c0,0,0-.1,0-.2,0-.2,0-.3,0-.5,0-.3.1-.7.3-1.1.1-.4.3-.8.4-1,0-.1,0-.2.1-.2,0,0,0,0,0,0,0,0,0,0-.1,0,0,.1-.1.2-.2.2-.2.3-.5.7-.7,1.2-.2.5-.3,1-.4,1.4,0,.3,0,.6,0,1.1,0,.4.3.6.7.6s.7-.3.9-1c.1-.4.1-.6.1-.7Z"/>
          <path class="st2" d="M113.3,18.2c0-.2-.1-.2-.2,0,0,0,0,0-.1.1-.2.3-.4.4-.5.4-.1,0-.3-.1-.3-.2h0c0,0,0-.1,0-.2,0-.2,0-.3,0-.5,0-.3.1-.7.3-1.1.1-.4.3-.8.4-1,0-.1,0-.2.1-.2,0,0,0,0,0,0,0,0,0,0-.1,0,0,.1-.1.2-.2.2-.2.3-.5.7-.7,1.2-.2.5-.3,1-.4,1.4,0,.3,0,.6,0,1.1,0,.4.3.6.7.6s.7-.3.9-1c.1-.4.1-.6.1-.7Z"/>
          <path class="st2" d="M55.2,5.9c0-.2-.1-.2-.2,0,0,0,0,0-.1.1-.2.3-.4.4-.5.4-.1,0-.3-.1-.3-.2h0c0,0,0-.1,0-.2,0-.2,0-.3,0-.5,0-.3.1-.7.3-1.1.1-.4.3-.8.4-1,0-.1,0-.2.1-.2,0,0,0,0,0,0,0,0,0,0-.1,0,0,.1-.1.2-.2.2-.2.3-.5.7-.7,1.2-.2.5-.3,1-.4,1.4,0,.3,0,.6,0,1.1,0,.4.3.6.7.6s.7-.3.9-1c.1-.4.1-.6.1-.7Z"/>
          <path class="st2" d="M123.9,7.8c0-.2-.1-.2-.2,0,0,0,0,0-.1.1-.2.3-.4.4-.5.4-.1,0-.3-.1-.3-.2h0c0,0,0-.1,0-.2,0-.2,0-.3,0-.5,0-.3.1-.7.3-1.1.1-.4.3-.8.4-1,0-.1,0-.2.1-.2,0,0,0,0,0,0,0,0,0,0-.1,0,0,.1-.1.2-.2.2-.2.3-.5.7-.7,1.2-.2.5-.3,1-.4,1.4,0,.3,0,.6,0,1.1,0,.4.3.6.7.6s.7-.3.9-1c.1-.4.1-.6.1-.7Z"/>
          <path class="st2" d="M52.1,27c0-.2-.1-.2-.2,0,0,0,0,0-.1.1-.2.3-.4.4-.5.4-.1,0-.3-.1-.3-.2h0c0,0,0-.1,0-.2,0-.2,0-.3,0-.5,0-.3.1-.7.3-1.1.1-.4.3-.8.4-1,0-.1,0-.2.1-.2,0,0,0,0,0,0,0,0,0,0-.1,0,0,.1-.1.2-.2.2-.2.3-.5.7-.7,1.2-.2.5-.3,1-.4,1.4,0,.3,0,.6,0,1.1,0,.4.3.6.7.6s.7-.3.9-1c.1-.4.1-.6.1-.7Z"/>
          <path class="st2" d="M91.4-2.5s0,0,0,0c-.4.6-.9,1.2-1.3,1.7s-.8,1.2-1.1,1.9c-.7-1.2-1.5-2.4-2.5-3.7-.1.2-.3.5-.4.7-.1.2-.2.5-.3.7.6.7,1.1,1.4,1.6,2.1s.9,1.5,1.2,2.3c0,0,0,0,0,0s0,0,0,0c0,0,.1,0,.1,0,.1-.1.2-.3.3-.5,0-.2.1-.3.2-.5.3-.6.6-1.2.9-1.8s.7-1.1,1.1-1.6c0-.4,0-.9.2-1.3h0Z"/>
          <path class="st2" d="M37.7,12.8s0,0,0,0c-.3.4-.6.8-.9,1.2s-.5.9-.8,1.3c-.5-.8-1.1-1.7-1.8-2.6,0,.2-.2.3-.3.5,0,.2-.2.3-.2.5.4.5.8,1,1.1,1.5s.6,1,.8,1.6c0,0,0,0,0,0s0,0,0,0c0,0,0,0,.1,0,0,0,.2-.2.2-.3,0-.1,0-.2.1-.3.2-.4.4-.9.6-1.3s.5-.8.8-1.1c0-.3,0-.6.1-.9h0Z"/>
          <path class="st2" d="M41.8,21.5c-.7.3-1.1.6-1.1.7h.2c.3,0,.6,0,.9-.1.3,0,.6-.2.8-.3.6-.3,1.1-.7,1.4-1.3.2-.3.2-.6.2-.8s0-.3-.2-.5c-.2-.2-.7-.3-1.4-.3h-.3c-.6,0-1,0-1.1.3-.3.4-.5.7-.7,1.1-.2.4-.2.6-.2.7h0s0,0,.2-.2.2-.2.3-.2c.2-.1.4-.2.8-.2s.3,0,.5,0c.7,0,1,.1,1.1.2h0c-.2.3-.6.6-1.4.9Z"/>
          <path class="st2" d="M97.3,8.8c.6-.3,1.2-.5,1.8-.8.7-.2,1.3-.5,2-.7l.5-.8c-.3.1-.7.2-1,.4-.4.1-.7.3-1.1.4-.3.1-.7.2-1,.4-.3.1-.5.2-.7.3h0l-.6,1Z"/>
          <path class="st2" d="M106.9,5.9c-.3.2-.6.5-1,.7-.4.2-.8.5-1.1.7s-.7.5-1,.7-.6.4-.7.5c-.2.1-.3.2-.3.2h.2c.6-.2,1.2-.3,1.7-.5s.9-.4,1.4-.6c.4-.2.8-.5,1.2-.8.4-.3.7-.7,1.1-1.2.1,0,.2.1.3.2,0,0,.2.1.2.2.2-.3.3-.5.3-.7,0-.2.1-.3.1-.4h0c0-.2,0-.3-.1-.3,0,0-.1-.2-.2-.2.2-.7.3-1.2.3-1.6s0-.2,0-.2c0-.4-.2-.7-.4-.9-.1,0-.3-.1-.4-.1s-.3,0-.4.1c-.3.1-.7.4-1,.8-.3.4-.5.7-.6,1,0,.1,0,.2,0,.3,0,.2,0,.3.1.5.1.2.3.4.5.6.2.2.5.3.8.5-.2.2-.4.4-.7.6ZM107.7,3.7c-.2,0-.3-.2-.5-.4,0,0,0-.1,0-.2s0,0,0,0c0,0,.1-.2.2-.2.1,0,.2-.1.3-.1h0c0,0,.2,0,.3,0,.1,0,.2.2.2.4,0,0,0,.1,0,.2,0,.2,0,.4,0,.6-.2,0-.4-.2-.5-.3Z"/>
          <path class="st2" d="M93.5,27.9c.2-.1.4-.3.6-.4.2-.2.5-.3.7-.5.2-.2.5-.3.6-.4.2-.1.3-.2.5-.3.1,0,.2-.1.2-.1h-.1c-.4.1-.7.2-1,.3-.3.1-.6.2-.8.4-.3.1-.5.3-.7.5-.2.2-.4.4-.7.7,0,0-.1,0-.2-.1,0,0,0,0-.1-.1-.1.2-.2.3-.2.4,0,.1,0,.2,0,.3h0c0,0,0,.2,0,.2,0,0,0,0,.2.1-.1.4-.2.7-.2,1s0,0,0,.1c0,.3.1.4.2.5,0,0,.2,0,.2,0s.2,0,.3,0c.2,0,.4-.2.6-.5.2-.2.3-.5.4-.6,0,0,0-.1,0-.2,0-.1,0-.2,0-.3,0-.1-.2-.3-.3-.4-.1-.1-.3-.2-.5-.3,0-.1.2-.2.4-.4ZM93.1,29.2c.1,0,.2.1.3.2,0,0,0,0,0,.1s0,0,0,0c0,0,0,.1-.1.2,0,0-.1,0-.2,0h0c0,0-.1,0-.2,0,0,0-.1-.1-.1-.2,0,0,0,0,0-.1,0-.1,0-.2,0-.4.1,0,.2.1.3.2Z"/>
          <path class="st2" d="M51.6,17.8c.1-.2.2-.3.3-.5.1-.2.2-.3.2-.4,0,0,0,0,0,0,0,0,0,0,0,0s0,0-.1,0c-.4.1-.9.4-1.4.9s-.9.9-1.2,1.4c-.2.3-.3.5-.3.7,0,0,0,0,0,.1,0,.2.1.4.3.6.2.2.4.3.7.3.2,0,.3.1.3.2h0c0,0,0,.1-.2.2,0,0-.2,0-.5.2-.3.1-.7.3-1,.4-.3.2-.6.3-.8.4-.1,0-.2.1-.2.2s0,0,.1,0c.1,0,.2,0,.4,0s.4,0,.6,0c.4,0,.7-.1.9-.2.4-.2.6-.4.9-.8.2-.3.5-.6.7-1,.3-.4.4-.6.4-.8s0,0,0,0c0-.2-.1-.3-.3-.4-.2,0-.4-.2-.6-.3-.2,0-.4-.2-.5-.4.2-.2.4-.3.6-.4.2,0,.4-.1.6-.2,0,0,.1-.2.2-.3Z"/>
          <path class="st2" d="M67,15.4c0,0,0-.1,0-.1,0,0-.1,0-.2,0-.8.7-1.3.7-1.5,0-.2-.7-.1-1.7.2-2.9s.5-1.8.5-2l-.6.6h0c-1.1,3.4-1.5,5.4-1.2,6.1.4.7.8,1,1.3.9,1,0,1.5-.9,1.5-2.6Z"/>
          <path class="st2" d="M73,13.2c.6.2,1.2.5,1.6.9.4.4.4.9,0,1.3-.3.4-1,.8-2,1.2v.3c-.1,0,0,.4,0,.4,2.2-.4,3.7-1.1,4.4-2,.3-.5.5-1,.4-1.5s-.3-.9-.6-1.3c-.2-.3-.5-.5-1-.8s-.8-.4-1.1-.5l.6-1.3h-1l-1.5,3.3Z"/>
          <path class="st2" d="M93.6,14.2c.4.1.8.3,1,.6.3.3.3.6,0,.9-.2.3-.6.5-1.3.8v.2c0,0,0,.3,0,.3,1.5-.3,2.4-.7,2.9-1.3.2-.4.3-.7.3-1s-.2-.6-.4-.9c-.1-.2-.4-.4-.6-.5s-.5-.3-.7-.3l.4-.9h-.7l-.9,2.1Z"/>
          <path class="st2" d="M91.1,11.3c.2-.3.5-1,1-2,.4-1,.9-2.2,1.3-3.5l-2.1.7-.7,2c-.4-.5-.8-1-1.2-1.5-.4-.5-.7-.7-1-.7h0c-.6,0-1,.4-1.4.9-.3.5-.5,1.1-.6,1.8,0,.3,0,.7,0,1s0,.7,0,1.1c.1.7.3,1.3.6,1.7.4.7.8,1.5,1.2,2.5.3.8.5,1.6.5,2.4s0,.5,0,.8c0,0,.2-.1.2-.3.2-.7.4-1.3.6-2,.2-.5.2-1,.2-1.6s0-.4,0-.7c-.2-.8-.6-1.6-1-2.5-.5-.8-.8-1.6-1.1-2.4.2-.2.4-.4.6-.4s.2,0,.3,0c.3.2.6.4,1,.8.3.4.6.7.9,1.1.3.4.6.6.8.7h0s0,0,.2-.1h0Z"/>
          <path class="st2" d="M44.2,31.6c.2-.3.5-.9.9-1.8.4-.9.8-1.9,1.2-3.1l-1.9.6-.6,1.8c-.3-.4-.7-.9-1-1.3-.3-.4-.6-.6-.9-.6h0c-.5,0-.9.3-1.2.8-.3.5-.5,1-.6,1.6,0,.3,0,.6,0,.9s0,.6,0,.9c0,.6.3,1.1.5,1.5.4.6.7,1.3,1.1,2.2.3.7.4,1.4.4,2.1s0,.5,0,.7c0,0,.1-.1.2-.2.1-.6.3-1.2.5-1.8.1-.4.2-.9.2-1.4s0-.4,0-.6c-.2-.7-.5-1.4-.9-2.2-.4-.7-.7-1.4-1-2.1.2-.2.3-.3.5-.3s.2,0,.3,0c.3.2.6.4.9.7.3.3.6.7.8,1,.3.3.5.5.7.6h0s0,0,.1,0h0Z"/>
          <path class="st2" d="M106.6,13.9c-.2,2-.8,3.6-1.9,5-1.1,1.4-2.1,2.4-3,3.1-.2.2-.5.4-.8.5-.3.2-.5.4-.7.6,0,0,0,.1,0,.2,0,0,0,0,0,0,0,0,0,0,0,0h0c1.5,0,2.7,0,3.5,0,.3,0,.6,0,.9,0,.7,0,1.5,0,2.4,0,.3-.3.7-.5,1-.8.3-.3.7-.6,1-.9-.8,0-1.6,0-2.2,0s-.5,0-.8,0c-.8,0-1.7,0-2.8.2.4-.3,1-.9,1.7-1.8.7-.8,1.4-1.7,2.1-2.7.6-1,1.2-1.9,1.5-2.7.2-.5.3-.9.3-1.3s0-.5-.2-.7c-.7.5-1.4.8-2.2,1.2Z"/>
          <polygon class="st2" points="87.2 28.8 83.7 25.3 87.2 21.8 90.6 25.3 87.2 28.8"/>
          <polygon class="st2" points="49.7 13.3 47.6 11.2 49.7 9.2 51.8 11.2 49.7 13.3"/>
          <polygon class="st2" points="52.7 13.3 50.7 11.2 52.7 9.2 54.8 11.2 52.7 13.3"/>
        </g>
      </g>
    </pattern>
  </defs>
  <rect class="st0" x="-47.5" y="-171.5" width="595.3" height="842.1"/>
</svg>